<svg width="165" height="96" viewBox="0 0 165 96" fill="none" xmlns="http://www.w3.org/2000/svg">
<path d="M12.4833 86.7826C12.4833 86.7826 -3.63054 76.8934 0.780045 48.9547C5.19063 21.0159 39.4766 20.2199 43.0264 21.3053C43.0264 21.3053 47.8923 9.11636 60.8203 3.53859C73.7484 -2.03917 103.265 -0.773465 113.073 23.6425C113.073 23.6425 139.676 15.985 144.025 44.566C144.025 44.566 165.383 49.3478 164.746 68.1168C164.11 86.8859 146.683 97.4697 129.238 86.7236C129.238 86.7236 114.06 103.936 95.5152 89.1434C95.5152 89.1434 77.5691 104.104 57.4459 88.4441C57.3225 88.4388 33.2346 105.802 12.4833 86.7826Z" fill="white"/>
</svg>
