<svg width="105" height="58" viewBox="0 0 105 58" fill="none" xmlns="http://www.w3.org/2000/svg">
<path d="M7.97718 52.0945C7.97718 52.0945 -2.21197 46.165 0.541114 29.487C3.29419 12.809 24.9484 12.3843 27.1918 13.0377C27.1918 13.0377 30.2509 5.76589 38.4098 2.45406C46.5687 -0.857776 65.2128 -0.0582872 71.4363 14.537C71.4363 14.537 88.23 10.0034 91.0102 27.0779C91.0102 27.0779 104.506 29.965 104.125 41.1727C103.745 52.3803 92.7509 58.675 81.7199 52.2318C81.7199 52.2318 72.1536 62.4883 60.4233 53.627C60.4233 53.627 49.106 62.5348 36.3778 53.1531C36.2997 53.1498 21.106 63.4834 7.97718 52.0945Z" fill="white"/>
</svg>
