<svg width="177" height="96" viewBox="0 0 177 96" fill="none" xmlns="http://www.w3.org/2000/svg">
<path d="M13.6305 86.2352C13.6305 86.2352 -3.60442 76.293 1.03549 48.3652C5.6754 20.4374 42.2914 19.7517 46.0855 20.8486C46.0855 20.8486 51.2515 8.67391 65.0448 3.13712C78.8381 -2.39967 110.365 -1.03879 120.902 23.4116C120.902 23.4116 149.296 15.8388 154.013 44.4372C154.013 44.4372 176.835 49.2883 176.203 68.0575C175.571 86.8267 156.985 97.3556 138.326 86.5521C138.326 86.5521 122.16 103.718 102.316 88.8636C102.316 88.8636 83.1872 103.768 61.6557 88.0416C61.5237 88.0359 35.8414 105.324 13.6305 86.2352Z" fill="white"/>
</svg>
