<svg width="555" height="461" viewBox="0 0 555 461" fill="none" xmlns="http://www.w3.org/2000/svg">
<path opacity="0.18" d="M92.572 362.252L26.1053 356.705C26.1053 356.705 28.5122 364.964 32.8322 366.505C34.5602 367.122 132.008 374.395 138.179 373.779C144.351 373.163 230.319 421.427 352.514 391.223C352.514 391.223 406.206 346.226 400.652 326.501C400.652 326.501 194.525 325.268 191.439 324.035C188.353 322.803 113.678 313.556 109.976 314.789C106.273 316.022 98.8669 342.527 108.124 348.691C108.124 348.691 69.861 342.712 68.8118 342.527C67.7627 342.342 58.1352 347.027 58.1352 347.027L56.0986 347.212C56.1603 347.274 80.6611 359.787 92.572 362.252Z" fill="url(#paint0_linear)"/>
<path opacity="0.18" d="M345.787 400.161L368.622 421.119L544.323 461L555 423.215L379.113 387.217L387.136 400.777L371.707 407.558L345.787 400.161Z" fill="url(#paint1_linear)"/>
<path d="M24.007 342.959C24.007 342.959 22.6493 310.166 22.4024 298.27C22.4024 298.27 36.1648 299.379 40.9168 296.605C40.9168 296.605 33.8196 340.493 33.4494 343.945L24.007 342.959Z" fill="#65C7EE"/>
<path d="M57.3946 327.61C57.3946 327.61 55.5432 295.804 55.5432 287.791L72.6382 289.209C72.6382 289.209 68.3181 318.18 66.2816 329.46C66.2198 329.46 60.2952 331.432 57.3946 327.61Z" fill="#65C7EE"/>
<path d="M41.8425 172.277C41.8425 172.277 30.8573 155.326 30.2402 154.894C29.623 154.463 29.3145 153.785 29.3145 153.785C29.3145 153.785 34.1282 146.511 31.6596 140.039C29.191 133.567 25.7967 131.409 26.2287 125.862C26.6607 120.314 40.4231 107.37 50.4209 113.534C50.4209 113.534 55.6666 118.773 55.0495 121.67C55.0495 121.67 57.6415 134.615 51.038 144.354C51.038 144.354 48.446 145.278 45.6071 144.662C45.6071 144.662 45.9157 148.299 47.9523 149.532C49.9889 150.764 50.7295 152.737 50.7295 152.737L52.1489 154.463C52.1489 154.463 54.8026 156.805 54.9878 157.422C55.1729 158.038 56.3455 163.277 56.5306 164.079C56.7158 164.88 57.6415 169.503 57.6415 170.243C57.6415 170.982 57.7649 172.215 56.4072 172.585C55.0495 172.955 41.8425 172.277 41.8425 172.277Z" fill="#65C7EE"/>
<path d="M24.5007 119.39C24.5007 119.39 5.80118 117.232 3.70288 143.922C1.60458 170.613 7.40576 188.303 0 194.899C0 194.899 30.8573 167.346 24.6859 144.354C18.5144 121.362 29.8082 127.526 29.8082 126.478C29.8082 125.43 24.5007 119.39 24.5007 119.39Z" fill="url(#paint2_linear)"/>
<path d="M30.8573 138.991C30.8573 138.991 26.4139 132.95 25.4264 128.821C24.439 124.691 24.6859 112.363 39.4974 110.513C54.3089 108.664 56.4689 119.143 56.2838 121.3C56.0986 123.458 56.2838 122.225 56.2838 122.225C56.2838 122.225 48.2609 127.033 39.6208 125.307C39.6208 125.307 39.0037 128.512 37.2757 129.499C37.2757 129.499 28.5122 126.417 34.9305 137.512C35.0539 137.45 33.4494 140.409 30.8573 138.991Z" fill="url(#paint3_linear)"/>
<path d="M53.1363 154.648C53.1363 154.648 81.9571 185.221 84.7342 187.995C87.5114 190.769 114.357 181.523 116.209 180.475C118.06 179.427 119.294 177.886 119.603 175.544C119.912 173.202 121.948 171.969 122.195 174.434C122.442 176.9 121.208 180.167 125.651 176.9C130.095 173.633 135.34 169.318 135.834 169.626C136.328 169.935 136.451 171.291 131.637 176.222C131.637 176.222 135.032 184.42 130.527 186.701C126.021 188.981 121.393 188.365 119.109 188.981C116.826 189.598 84.9811 201.803 84.3639 202.111C83.7468 202.419 81.0931 202.542 76.8348 198.844C72.6382 195.145 63.6278 184.297 63.6278 184.297L60.9124 179.92C60.9741 179.859 62.1467 169.626 53.1363 154.648Z" fill="#65C7EE"/>
<path d="M22.0938 298.023C22.0938 298.023 36.7819 299.872 40.7317 296.667C40.7317 296.667 42.8917 282.798 43.0768 273.244C43.262 263.689 44.1877 252.779 44.1877 252.779C44.1877 252.779 49.2483 262.95 50.9763 267.45C52.7043 271.949 55.7901 287.791 55.7901 287.791L72.2062 289.27C72.2062 289.27 70.2313 251.053 64.677 238.109C59.1227 225.164 56.4072 206.179 55.9752 202.111C55.5432 197.981 59.4929 182.817 59.8632 182.201C60.2335 181.585 66.7753 165.25 48.6312 149.963C48.6312 149.963 57.5798 164.325 55.9135 169.257L43.8174 171.291C43.8174 171.291 36.8437 150.333 25.9202 152.614C25.9202 152.614 18.0824 158.778 18.0824 160.011C18.0824 160.011 40.4848 163.709 24.0687 192.063C24.0687 192.063 23.4516 210.556 19.9338 220.603C16.4161 230.65 12.3429 242.793 17.6504 265.6C22.9579 288.407 22.0938 298.023 22.0938 298.023Z" fill="url(#paint4_linear)"/>
<path d="M54.1238 158.408C54.1238 158.408 59.6781 167.469 57.3946 182.756C55.1112 198.043 56.5923 198.967 56.5923 198.967C56.5923 198.967 64.677 170.674 54.1238 158.408Z" fill="white"/>
<path d="M25.9202 152.182C25.9202 152.182 38.1397 154.278 41.3488 164.264C44.558 174.249 46.1626 193.358 23.9453 193.974C23.9453 193.974 22.8344 207.042 21.415 214.439C21.415 214.439 42.9534 196.255 47.8906 181.276C52.8278 166.298 33.6345 146.265 25.9202 152.182Z" fill="white"/>
<path d="M17.7738 160.072C17.7738 160.072 11.9109 191.139 10.8618 195.269C9.81264 199.399 9.2572 249.944 11.1086 258.265C11.1086 258.265 14.5029 262.272 17.5887 261.84C17.5887 261.84 15.2435 251.238 16.0458 247.971C16.8481 244.704 18.2058 248.896 18.823 249.944C19.4401 250.992 19.5636 248.711 18.5144 244.519C17.4653 240.328 19.7487 203.96 19.8721 202.604C19.9956 201.248 22.8344 196.132 23.0813 193.851L23.9453 191.879C24.007 191.879 42.2746 165.681 17.7738 160.072Z" fill="#65C7EE"/>
<path d="M37.8311 367.307C37.8311 367.307 46.286 367.307 40.4848 362.56C34.6836 357.814 32.6471 351.034 33.6962 343.637L23.8219 342.836C23.8219 342.836 24.9327 353.808 22.1556 360.095C19.3784 366.382 34.1282 366.752 37.8311 367.307Z" fill="#6BA0D6"/>
<path d="M57.3946 327.549C57.3946 327.549 57.7032 331.987 56.1603 336.363C54.6175 340.74 52.5809 347.643 56.5923 347.767C60.6038 347.89 66.4667 350.232 67.3924 351.28C68.3181 352.328 83.7468 353.931 84.5491 348.383C85.3514 342.836 64.0598 349.739 66.4667 329.09C66.4667 329.09 59.3695 328.966 57.3946 327.549Z" fill="#6BA0D6"/>
<path d="M36.2882 129.992C36.2882 129.992 49.0632 131.225 51.0997 130.916C53.1363 130.608 58.0118 128.759 58.0118 128.759L58.3204 125.369L55.3581 125.245C55.3581 125.245 55.3581 127.958 50.2975 128.574C45.2369 129.19 39.0654 130.177 36.2882 129.992Z" fill="url(#paint5_linear)"/>
<path d="M35.6711 129.93C35.6711 129.93 43.0768 134.43 44.8049 135.663C46.8414 137.204 56.7775 136.526 58.3204 133.197C59.8632 129.868 58.3821 125.307 58.3821 125.307C58.3821 125.307 58.1352 129.252 52.5809 130.053C52.5192 130.053 36.5351 130.546 35.6711 129.93Z" fill="url(#paint6_linear)"/>
<path d="M24.3156 127.773C24.3156 127.773 21.1064 121.547 23.143 119.39C25.1796 117.232 26.4756 120.068 26.4756 120.068C26.4756 120.068 24.6859 124.937 25.3647 127.218C25.3647 127.218 24.9944 127.958 24.3156 127.773Z" fill="#65C7EE"/>
<path d="M284.628 374.827C388.755 374.827 473.166 337.35 473.166 291.119C473.166 244.889 388.755 207.412 284.628 207.412C180.501 207.412 96.0897 244.889 96.0897 291.119C96.0897 337.35 180.501 374.827 284.628 374.827Z" fill="url(#paint7_linear)"/>
<path opacity="0.92" d="M148.547 236.506C148.547 236.506 108.741 264.614 135.279 296.79C161.26 328.35 250.747 339.445 250.747 339.445C250.747 339.445 408.119 349.986 443.79 284.709C472.858 231.513 355.415 220.233 352.576 218.877L358.747 253.211C358.747 253.211 248.587 324.035 217.853 315.097C187.119 306.16 166.815 289.209 165.21 283.353C163.606 277.559 158.73 250.745 158.73 249.389C158.73 248.033 148.547 236.506 148.547 236.506Z" fill="#D8D8D8"/>
<path d="M470.821 288.592C470.821 332.357 381.89 368.848 272.223 367.862C171.752 366.937 89.3011 323.665 92.2634 279.963C94.5469 246.677 157.434 203.282 267.101 203.282C376.768 203.282 470.821 244.828 470.821 288.592Z" fill="url(#paint8_linear)"/>
<path opacity="0.97" d="M433.237 269.237C433.237 300.057 363.253 327.857 277.037 327.179C197.981 326.563 133.489 293.585 132.995 262.58C132.563 236.013 186.749 211.295 273.026 211.295C359.303 211.295 433.237 238.417 433.237 269.237Z" fill="#C6C8E6"/>
<path opacity="0.41" d="M411.205 254.259C411.205 278.237 355.538 306.468 285.307 305.913C221 305.42 158.175 278.915 161.26 254.998C164.655 228.554 208.41 214.685 278.642 214.685C348.873 214.685 411.205 230.28 411.205 254.259Z" fill="#1E203F"/>
<path d="M399.541 249.759C399.541 269.607 347.577 293.955 280.987 293.523C219.951 293.092 167.74 270.716 170.703 250.868C173.912 228.924 211.311 218.877 277.901 218.877C344.491 218.877 399.541 229.911 399.541 249.759Z" fill="white"/>
<path opacity="0.74" d="M380.409 246.184C380.409 262.333 337.209 282.182 281.789 281.812C231.06 281.504 187.613 263.196 190.081 247.047C192.797 229.171 223.839 220.973 279.259 220.973C334.679 220.973 380.409 229.972 380.409 246.184Z" fill="url(#paint9_linear)"/>
<path opacity="0.2" d="M309.437 118.403L310.672 166.544C310.672 166.544 312.091 176.777 321.719 175.79C331.346 174.804 398.553 169.565 405.836 185.899C405.836 185.899 408.613 193.851 412.192 188.673C412.192 188.673 412.995 182.509 412.686 175.544C412.377 168.579 413.056 127.28 413.056 127.28C413.056 127.28 400.281 96.8909 316.72 107.616C316.781 107.678 309.437 109.589 309.437 118.403Z" fill="#2389CA"/>
<path opacity="0.2" d="M279.753 149.1V283.168C279.753 283.168 280.678 301.845 302.896 301.845C325.113 301.845 391.271 296.79 409.785 260.731L414.291 93.5006C414.291 93.5006 413.056 85.0559 406.453 90.4186C399.849 95.7813 362.45 121.116 296.601 119.944C296.662 119.944 279.753 120.376 279.753 149.1Z" fill="#2389CA"/>
<path opacity="0.2" d="M348.873 159.764L347.886 204.946C347.886 204.946 348.318 212.158 359.303 212.158C370.226 212.158 402.812 210.186 411.884 196.317L414.105 132.087C414.105 132.087 416.327 125.985 413.118 128.081C409.909 130.177 406.329 146.265 354.18 147.806C354.119 147.744 348.873 148.73 348.873 159.764Z" fill="white"/>
<path opacity="0.57" d="M293.268 144.909L293.33 148.607C293.33 148.607 309.746 149.347 326.224 146.881L326.162 143.059C326.224 143.059 317.09 145.34 293.268 144.909Z" fill="white"/>
<path opacity="0.57" d="M293.145 152.121L293.206 154.771C293.206 154.771 309.931 155.264 326.717 153.415L326.656 150.641C326.656 150.703 317.337 152.367 293.145 152.121Z" fill="white"/>
<path opacity="0.57" d="M293.268 161.305V163.709C293.268 163.709 307.339 164.14 321.472 162.538V160.011C321.472 160.072 313.634 161.552 293.268 161.305Z" fill="white"/>
<path opacity="0.57" d="M293.206 165.681L293.268 168.64C293.268 168.64 309.561 169.072 325.853 166.976L325.792 163.894C325.792 163.956 316.72 165.805 293.206 165.681Z" fill="white"/>
<path opacity="0.57" d="M293.206 157.36V159.456C293.206 159.456 304.315 159.887 315.424 158.47V156.25C315.424 156.312 309.252 157.607 293.206 157.36Z" fill="white"/>
<path opacity="0.57" d="M293.268 170.982L293.33 173.078C293.33 173.078 304.994 173.386 316.658 171.907L316.596 169.688C316.596 169.688 310.116 171.044 293.268 170.982Z" fill="white"/>
<path opacity="0.57" d="M293.268 188.673L293.33 192.372C293.33 192.372 309.746 193.111 326.224 190.646L326.162 186.824C326.224 186.824 317.09 189.105 293.268 188.673Z" fill="white"/>
<path opacity="0.57" d="M293.145 195.885L293.206 198.536C293.206 198.536 309.931 199.029 326.717 197.18L326.656 194.406C326.656 194.467 317.337 196.132 293.145 195.885Z" fill="white"/>
<path opacity="0.57" d="M293.268 205.07V207.474C293.268 207.474 307.339 207.905 321.472 206.302V203.775C321.472 203.837 313.634 205.316 293.268 205.07Z" fill="white"/>
<path opacity="0.57" d="M293.206 209.446L293.268 212.405C293.268 212.405 309.561 212.836 325.853 210.74L325.792 207.658C325.792 207.72 316.72 209.569 293.206 209.446Z" fill="white"/>
<path opacity="0.57" d="M293.206 201.125V203.22C293.206 203.22 304.315 203.652 315.424 202.234V200.015C315.424 200.077 309.252 201.371 293.206 201.125Z" fill="white"/>
<path opacity="0.57" d="M293.268 214.747L293.33 216.843C293.33 216.843 304.994 217.151 316.658 215.672L316.596 213.453C316.596 213.453 310.116 214.809 293.268 214.747Z" fill="white"/>
<path d="M302.649 245.69C305.75 245.69 308.265 243.014 308.265 239.711C308.265 236.409 305.75 233.732 302.649 233.732C299.547 233.732 297.033 236.409 297.033 239.711C297.033 243.014 299.547 245.69 302.649 245.69Z" fill="white"/>
<path opacity="0.57" d="M294.07 252.039L294.132 255.491C294.132 255.491 312.955 256.231 331.901 253.95L331.84 250.375C331.84 250.375 321.348 252.471 294.07 252.039Z" fill="white"/>
<path opacity="0.57" d="M293.947 258.758L294.009 261.224C294.009 261.224 313.202 261.655 332.519 260.053L332.457 257.525C332.395 257.464 321.719 259.005 293.947 258.758Z" fill="white"/>
<path opacity="0.57" d="M294.502 267.634L294.564 269.853C294.564 269.853 310.733 270.162 326.903 268.497L326.841 266.155C326.841 266.155 317.892 267.696 294.502 267.634Z" fill="white"/>
<path opacity="0.57" d="M294.317 272.442L294.379 275.155C294.379 275.155 313.078 275.771 331.778 274.045L331.716 271.21C331.716 271.21 321.348 272.874 294.317 272.442Z" fill="white"/>
<path opacity="0.57" d="M294.009 263.628V265.6C294.009 265.6 306.722 265.97 319.497 264.676V262.642C319.435 262.642 312.4 263.874 294.009 263.628Z" fill="white"/>
<path opacity="0.57" d="M294.379 277.312V279.284C294.379 279.284 307.709 279.716 321.101 278.483V276.449C321.101 276.449 313.696 277.62 294.379 277.312Z" fill="white"/>
<path opacity="0.57" d="M369.979 177.331L378.064 178.071C377.262 186.577 372.942 193.173 368.56 192.803C364.178 192.433 361.154 185.036 361.957 176.592C362.759 168.085 367.079 161.49 371.461 161.86C373.065 162.045 374.608 163.093 375.781 165.003L369.979 177.331Z" fill="#AE75B0"/>
<path opacity="0.57" d="M371.893 175.544L378.743 164.634C379.915 167.284 381.335 171.537 381.026 174.927C381.026 175.236 380.965 175.482 380.903 175.79L371.893 175.544Z" fill="#AE75B0"/>
<path opacity="0.08" d="M172.801 257.094V105.089C172.801 105.089 174.159 94.4869 182.182 98.3702C190.205 102.254 192.241 113.965 243.094 119.205C243.094 119.205 256.856 120.499 256.856 137.019C256.856 153.538 256.856 281.812 256.856 281.812C256.856 281.812 256.239 295.742 244.946 295.742C233.59 295.804 181.133 287.421 172.801 257.094Z" fill="#2389CA"/>
<path opacity="0.55" d="M149.535 215.857C149.535 215.857 149.226 209.384 154.595 210.309C159.964 211.234 157.99 217.829 205.51 232.623C205.51 232.623 209.521 233.239 209.521 239.28C209.521 245.321 209.521 252.533 209.521 252.533C209.521 252.533 209.213 258.573 200.758 256.231C192.55 254.012 158.854 243.595 150.214 230.465C149.72 229.726 149.535 228.863 149.535 228V215.857Z" fill="#2664AE"/>
<path opacity="0.4" d="M155.151 0.793671C155.151 0.793671 160.582 258.08 160.643 260.854C160.828 268.682 201.19 306.036 283.023 306.468C364.919 306.899 400.713 276.449 411.39 261.655L415.216 3.56748L155.151 0.793671Z" fill="url(#paint10_linear)"/>
<path opacity="0.14" d="M387.667 342.988C392.606 341.67 395.705 337.216 394.588 333.039C393.471 328.862 388.562 326.544 383.623 327.862C378.683 329.179 375.585 333.633 376.701 337.81C377.818 341.987 382.728 344.305 387.667 342.988Z" stroke="#2664AE" stroke-width="5" stroke-miterlimit="10"/>
<path opacity="0.14" d="M405.28 331.309C406.78 331.309 407.996 330.095 407.996 328.597C407.996 327.099 406.78 325.885 405.28 325.885C403.781 325.885 402.565 327.099 402.565 328.597C402.565 330.095 403.781 331.309 405.28 331.309Z" fill="#2664AE"/>
<path opacity="0.14" d="M416.574 326.254C417.835 326.254 418.857 325.233 418.857 323.974C418.857 322.714 417.835 321.693 416.574 321.693C415.313 321.693 414.291 322.714 414.291 323.974C414.291 325.233 415.313 326.254 416.574 326.254Z" fill="#2664AE"/>
<path d="M367.141 403.859C367.141 403.859 370.72 406.695 374.546 398.004L379.422 402.257L380.656 408.359L381.767 411.318L383.495 411.256C383.495 411.256 379.113 415.078 377.879 415.818C376.645 416.557 368.683 417.975 368.005 417.605C367.326 417.235 363.006 413.29 362.759 411.934C362.512 410.578 362.389 407.065 362.697 406.88C363.006 406.695 367.141 403.859 367.141 403.859Z" fill="#F086AC"/>
<path d="M413.427 398.62L409.23 403.551C409.23 403.551 402.318 405.092 398.43 404.044C394.542 402.997 393.493 398.497 393.493 398.497L404.293 387.093C404.293 387.093 401.392 399.545 413.427 398.62Z" fill="#F086AC"/>
<path d="M368.498 404.353C368.498 404.353 360.969 402.195 353.995 398.189C347.022 394.182 342.578 396.339 346.59 403.859C350.601 411.38 355.97 410.024 359.55 414.215C363.129 418.407 369.424 424.694 374.238 420.256C379.052 415.818 379.298 414.585 379.298 414.585C379.298 414.585 368.498 417.051 366.647 414.893C364.795 412.736 363.129 406.633 368.498 404.353Z" fill="#7785C1"/>
<path d="M382.631 384.874C382.631 384.874 377.077 383.333 376.459 384.874C375.842 386.415 373.682 391.655 382.754 397.819C391.826 403.983 398.183 412.736 402.627 411.503C407.07 410.27 409.292 403.613 409.292 403.613C409.292 403.613 400.22 402.688 398.615 394.983L382.631 384.874Z" fill="#7785C1"/>
<path d="M373.682 399.175C373.682 399.175 386.642 374.21 388.062 369.094C389.481 363.978 397.813 343.822 428.67 349.678C428.67 349.678 448.11 352.451 449.962 351.835C451.813 351.219 448.11 351.835 448.11 351.835L453.665 351.527C453.665 351.527 447.493 378.032 456.133 382.655C456.133 382.655 435.644 380.19 426.387 374.642C426.387 374.642 413.427 369.587 411.081 375.135C408.736 380.683 403.676 393.627 391.209 404.106L382.878 411.626C382.878 411.564 374.485 410.886 373.682 399.175Z" fill="url(#paint11_linear)"/>
<path d="M404.725 388.696C404.725 388.696 403.058 398.127 412.131 399.976L422.622 392.148L411.02 375.505C411.02 375.505 406.576 386.23 404.725 388.696Z" fill="url(#paint12_linear)"/>
<path d="M477.733 287.359C477.733 287.359 488.965 283.661 487.916 276.264C487.916 276.264 480.819 276.757 480.017 276.572C479.214 276.387 478.721 269.915 476.869 268.066C475.018 266.217 474.586 263.751 475.82 260.484C477.054 257.217 475.388 256.601 474.586 255.984C473.784 255.368 471.5 251.67 473.352 245.074L488.595 245.506L505.875 259.498C505.875 259.498 502.913 268.867 506.245 275.894C509.578 282.921 509.393 283.229 509.393 283.229L494.273 287.976C494.335 287.914 483.102 287.174 477.733 287.359Z" fill="url(#paint13_linear)"/>
<path d="M431.139 349C431.139 349 417.438 344.993 412.316 345.794C407.193 346.596 399.664 349.493 394.542 343.945L394.295 343.39L390.839 343.329C390.839 343.329 389.913 345.856 389.852 347.335C389.852 347.335 387.383 346.965 389.728 341.233C389.728 341.233 392.69 339.692 394.172 340.247C394.172 340.247 395.036 338.274 392.073 336.918C389.111 335.562 386.519 335.562 386.025 335.377C385.532 335.192 385.902 333.59 388.185 333.466C390.469 333.343 398.306 335.685 401.022 336.857C403.737 338.028 421.017 338.459 425.831 337.843C425.893 337.843 424.967 344.253 431.139 349Z" fill="url(#paint14_linear)"/>
<path d="M424.967 337.535C424.967 337.535 425.708 346.596 429.719 348.753L434.224 349.493C434.224 349.493 430.028 342.836 434.101 336.918L424.967 337.535Z" fill="#692040"/>
<path opacity="0.33" d="M474.339 246.369C474.339 246.369 475.45 249.759 477.548 251.916C479.646 254.074 478.659 258.697 478.474 259.929C478.289 261.162 480.449 262.272 482.053 260.238C483.658 258.203 484.83 254.567 487.299 257.895C489.768 261.224 483.905 268.066 489.891 270.223C495.877 272.381 503.962 268.497 504.394 267.265C504.826 266.032 505.505 259.868 505.505 259.868C505.505 259.868 501.679 263.443 498.593 260.977C495.507 258.512 494.89 255.923 493.039 254.197C491.187 252.471 478.659 246.06 474.339 246.369Z" fill="url(#paint15_linear)"/>
<path d="M505.505 259.929C516.922 239.588 507.665 238.664 501.802 235.273C495.939 231.883 488.657 235.397 483.102 233.547C477.548 231.698 472.487 234.04 472.487 240.821C472.487 240.821 472.364 245.567 475.141 247.416C477.918 249.266 488.286 249.697 492.73 254.998C497.173 260.361 501.185 265.909 505.505 259.929Z" fill="url(#paint16_linear)"/>
<path d="M494.335 287.914C494.335 287.914 483.781 282.921 475.758 288.037C467.735 293.154 461.564 296.667 452.43 318.056C443.296 339.445 437.002 336.548 433.299 336.856C433.299 336.856 429.102 343.514 434.224 349.493C434.224 349.493 446.691 353.068 453.665 351.465C453.665 351.465 461.379 336.795 464.279 322.371C467.18 307.947 473.166 290.75 494.335 287.914Z" fill="url(#paint17_linear)"/>
<path d="M509.455 283.168C509.455 283.168 506.863 278.237 506.307 275.833C506.307 275.833 518.959 269.669 523.711 275.339C523.711 275.339 528.71 277.62 509.455 283.168Z" fill="url(#paint18_linear)"/>
<path opacity="0.18" d="M445.271 424.016L411.513 376.368L466.254 396.709L488.657 389.497L501.617 407.188L548.088 421.119L517.169 456.5L445.271 424.016Z" fill="url(#paint19_linear)"/>
<path opacity="0.18" d="M456.133 364.718C456.133 364.718 468.785 331.74 470.327 320.337C471.87 308.933 480.202 296.297 491.31 292.907C502.419 289.517 530.191 279.038 530.191 279.038L508.899 345.301C508.899 345.301 455.207 364.718 456.133 364.718Z" fill="url(#paint20_linear)"/>
<path d="M229.085 197.796C228.591 184.975 219.396 181.153 219.396 181.153C227.419 184.112 226.555 171.969 226.555 171.969C225.999 157.113 210.632 152.984 210.632 152.984L188.23 144.724L188.415 151.936C188.415 151.936 188.415 151.936 190.76 152.799C193.105 153.662 193.414 156.189 193.414 156.189C193.414 156.189 194.586 187.564 194.648 190.153C194.772 192.742 193.661 192.31 193.661 192.31L190.019 190.954L190.328 198.536C190.328 198.536 195.142 200.323 212.73 206.796C230.319 213.268 229.085 197.796 229.085 197.796ZM203.597 158.963C203.597 158.963 207.978 160.689 212.113 162.23C216.248 163.771 217.976 171.352 215.755 173.818C213.533 176.345 204.09 171.907 204.09 171.907L203.597 158.963ZM217.359 197.241C215.014 200.323 204.893 195.515 204.893 195.515L204.337 180.105C204.337 180.105 208.966 182.016 213.409 183.619C217.853 185.221 219.704 194.159 217.359 197.241Z" fill="white"/>
<path d="M203.288 151.689L197.857 149.717L197.302 134.861L202.733 136.834L203.288 151.689Z" fill="white"/>
<path d="M210.509 154.34L205.078 152.367L204.522 137.512L209.953 139.546L210.509 154.34Z" fill="white"/>
<path d="M212.916 219.863L207.485 217.829L206.929 203.035L212.36 205.008L212.916 219.863Z" fill="white"/>
<path d="M205.695 217.151L200.264 215.179L199.709 200.323L205.14 202.357L205.695 217.151Z" fill="white"/>
<path d="M156.262 228.185C157.114 228.185 157.804 226.805 157.804 225.103C157.804 223.4 157.114 222.021 156.262 222.021C155.409 222.021 154.719 223.4 154.719 225.103C154.719 226.805 155.409 228.185 156.262 228.185Z" fill="white"/>
<path d="M162.371 232.006C163.087 232.006 163.667 231.123 163.667 230.034C163.667 228.944 163.087 228.061 162.371 228.061C161.656 228.061 161.075 228.944 161.075 230.034C161.075 231.123 161.656 232.006 162.371 232.006Z" fill="white"/>
<defs>
<linearGradient id="paint0_linear" x1="26.1265" y1="357.945" x2="401.138" y2="357.945" gradientUnits="userSpaceOnUse">
<stop offset="0.1377" stop-color="#5C7797"/>
<stop offset="0.6649" stop-color="#D2ECFC"/>
<stop offset="0.9997" stop-color="white" stop-opacity="0"/>
</linearGradient>
<linearGradient id="paint1_linear" x1="345.81" y1="424.119" x2="555.022" y2="424.119" gradientUnits="userSpaceOnUse">
<stop offset="0.1377" stop-color="#5C7797"/>
<stop offset="0.6649" stop-color="#D2ECFC"/>
<stop offset="0.9997" stop-color="white" stop-opacity="0"/>
</linearGradient>
<linearGradient id="paint2_linear" x1="0" y1="157.127" x2="29.8287" y2="157.127" gradientUnits="userSpaceOnUse">
<stop offset="0.093109" stop-color="#004F9A"/>
<stop offset="1" stop-color="#AD358B"/>
</linearGradient>
<linearGradient id="paint3_linear" x1="25.1396" y1="124.839" x2="56.322" y2="124.839" gradientUnits="userSpaceOnUse">
<stop offset="0.093109" stop-color="#004F9A"/>
<stop offset="1" stop-color="#AD358B"/>
</linearGradient>
<linearGradient id="paint4_linear" x1="15.1207" y1="224.24" x2="72.2062" y2="224.24" gradientUnits="userSpaceOnUse">
<stop offset="0.093109" stop-color="#004F9A"/>
<stop offset="1" stop-color="#AD358B"/>
</linearGradient>
<linearGradient id="paint5_linear" x1="36.3088" y1="128.099" x2="58.3204" y2="128.099" gradientUnits="userSpaceOnUse">
<stop offset="0.093109" stop-color="#004F9A"/>
<stop offset="1" stop-color="#AD358B"/>
</linearGradient>
<linearGradient id="paint6_linear" x1="35.6402" y1="130.909" x2="58.9495" y2="130.909" gradientUnits="userSpaceOnUse">
<stop offset="0.5832" stop-color="white"/>
<stop offset="1" stop-color="#6EC9ED"/>
</linearGradient>
<linearGradient id="paint7_linear" x1="96.0869" y1="291.115" x2="473.181" y2="291.115" gradientUnits="userSpaceOnUse">
<stop offset="0.093109" stop-color="#006381"/>
<stop offset="1" stop-color="#F6F6F6"/>
</linearGradient>
<linearGradient id="paint8_linear" x1="92.1623" y1="285.573" x2="470.822" y2="285.573" gradientUnits="userSpaceOnUse">
<stop offset="0.093109" stop-color="#E5E8F6"/>
<stop offset="1" stop-color="#F6F6F6"/>
</linearGradient>
<linearGradient id="paint9_linear" x1="189.967" y1="251.424" x2="380.405" y2="251.424" gradientUnits="userSpaceOnUse">
<stop offset="0.093109" stop-color="white"/>
<stop offset="1" stop-color="#41BDEE"/>
</linearGradient>
<linearGradient id="paint10_linear" x1="285.224" y1="0.809574" x2="285.224" y2="306.493" gradientUnits="userSpaceOnUse">
<stop offset="0.0157853" stop-color="white" stop-opacity="0"/>
<stop offset="0.5688" stop-color="#41BDEE"/>
<stop offset="0.9821" stop-color="#BAE3FA"/>
</linearGradient>
<linearGradient id="paint11_linear" x1="373.664" y1="380.075" x2="456.156" y2="380.075" gradientUnits="userSpaceOnUse">
<stop offset="0.00709135" stop-color="#1E3E8D"/>
<stop offset="0.9453" stop-color="#893770"/>
</linearGradient>
<linearGradient id="paint12_linear" x1="404.61" y1="387.743" x2="422.624" y2="387.743" gradientUnits="userSpaceOnUse">
<stop offset="0.093109" stop-color="#004F9A"/>
<stop offset="1" stop-color="#AD358B"/>
</linearGradient>
<linearGradient id="paint13_linear" x1="473.201" y1="269.125" x2="506.297" y2="260.863" gradientUnits="userSpaceOnUse">
<stop offset="0.00709135" stop-color="#009CDB"/>
<stop offset="0.7751" stop-color="#D56FA9"/>
</linearGradient>
<linearGradient id="paint14_linear" x1="388.75" y1="346.415" x2="428.063" y2="336.602" gradientUnits="userSpaceOnUse">
<stop offset="0.00709135" stop-color="#009CDB"/>
<stop offset="0.7751" stop-color="#D56FA9"/>
</linearGradient>
<linearGradient id="paint15_linear" x1="474.362" y1="258.641" x2="505.528" y2="258.641" gradientUnits="userSpaceOnUse">
<stop offset="0.093109" stop-color="#00416F"/>
<stop offset="1" stop-color="#692040"/>
</linearGradient>
<linearGradient id="paint16_linear" x1="472.51" y1="247.725" x2="510.951" y2="247.725" gradientUnits="userSpaceOnUse">
<stop offset="0.093109" stop-color="#004F9A"/>
<stop offset="1" stop-color="#AD358B"/>
</linearGradient>
<linearGradient id="paint17_linear" x1="431.717" y1="318.784" x2="494.316" y2="318.784" gradientUnits="userSpaceOnUse">
<stop offset="0.093109" stop-color="#004F9A"/>
<stop offset="1" stop-color="#AD358B"/>
</linearGradient>
<linearGradient id="paint18_linear" x1="506.299" y1="278.047" x2="524.313" y2="278.047" gradientUnits="userSpaceOnUse">
<stop offset="0.093109" stop-color="#004F9A"/>
<stop offset="1" stop-color="#AD358B"/>
</linearGradient>
<linearGradient id="paint19_linear" x1="411.516" y1="416.41" x2="548.111" y2="416.41" gradientUnits="userSpaceOnUse">
<stop offset="0.1377" stop-color="#5C7797"/>
<stop offset="0.6649" stop-color="#D2ECFC"/>
<stop offset="0.9997" stop-color="white" stop-opacity="0"/>
</linearGradient>
<linearGradient id="paint20_linear" x1="493.179" y1="279.051" x2="493.179" y2="364.731" gradientUnits="userSpaceOnUse">
<stop offset="0.1377" stop-color="#5C7797"/>
<stop offset="0.6649" stop-color="#D2ECFC"/>
<stop offset="0.9997" stop-color="white" stop-opacity="0"/>
</linearGradient>
</defs>
</svg>