<svg width="145" height="138" viewBox="0 0 145 138" fill="none" xmlns="http://www.w3.org/2000/svg">
<g clip-path="url(#clip0)">
<path d="M144.832 92.8424C145.672 117.275 111.228 136.82 72.92 138C33.6037 139.179 2.35226 117.275 2.35226 92.8424C2.35226 68.4101 34.2758 48.5273 73.5921 48.5273C112.908 48.5273 143.656 58.8057 144.832 92.8424Z" fill="url(#paint0_linear)"/>
<path d="M71.2399 130.586C110.585 130.586 142.48 110.746 142.48 86.2711C142.48 61.7966 110.585 41.9561 71.2399 41.9561C31.8952 41.9561 0 61.7966 0 86.2711C0 110.746 31.8952 130.586 71.2399 130.586Z" fill="url(#paint1_linear)"/>
<path opacity="0.2" d="M38.8123 93.1794L33.7717 123.678C33.7717 123.678 52.5898 132.945 77.7926 130.417C102.995 127.89 87.3696 129.912 87.3696 129.912L47.5492 88.4614L38.8123 93.1794Z" fill="url(#paint2_linear)"/>
<path opacity="0.2" d="M51.2456 86.6081L88.7138 129.238C88.7138 129.238 107.028 127.385 120.469 118.117C133.911 108.85 144.16 99.9195 141.808 80.8792C141.808 80.8792 140.127 71.6118 135.927 67.9048L106.524 63.6924C106.524 63.6924 93.9223 79.1942 82.4971 79.1942C71.0718 79.1942 51.2456 86.6081 51.2456 86.6081Z" fill="url(#paint3_linear)"/>
<path d="M45.029 92.1682L43.1808 96.0436C42.5087 96.3806 38.8123 94.0217 38.8123 93.3477L38.6443 68.2415C38.6443 67.399 39.1483 66.5565 39.8204 66.388L44.8609 64.366C45.533 64.029 49.5655 66.2195 49.5655 67.062L46.3731 90.3147C46.3731 90.9887 45.701 91.8312 45.029 92.1682Z" fill="#58C3E9"/>
<path d="M106.188 60.3222C108.372 60.3222 106.356 64.1976 104.508 66.5566C102.659 68.9156 97.9548 75.15 95.9386 77.172C93.9224 79.3625 93.2503 79.0255 93.0823 79.194C92.9143 79.3625 76.4484 88.7984 74.9363 88.9669L59.3105 84.9229L53.5979 87.9559L51.2457 86.4394L51.0776 66.3881C64.6871 55.7727 73.0881 57.6262 75.4403 58.3002C77.7926 58.9742 79.9768 58.4687 79.9768 58.4687C84.3453 56.2782 91.5701 55.9412 93.7543 56.2782C93.7543 56.2782 96.9467 57.4577 97.2827 58.9742L95.6025 60.9962L87.3696 66.5566C86.5295 66.7251 82.4971 68.4101 79.9768 69.0841C77.4565 69.7581 74.9363 71.2746 74.9363 71.2746C75.6083 70.9376 78.1286 71.7801 80.3129 71.7801C82.6651 71.7801 84.6813 70.4321 90.394 67.7361C96.1066 65.0401 97.7868 60.6592 101.483 57.1207C101.483 57.1207 107.028 55.7727 108.708 57.6262L106.188 60.3222Z" fill="#58C3E9"/>
<path d="M106.02 5.89662C105.684 4.38013 98.7949 -1.8543 91.4021 0.673173C84.0093 3.20065 81.657 9.09808 81.657 9.09808C81.657 9.09808 76.7845 5.72812 71.7439 6.57061C66.7034 7.4131 53.0939 15.164 56.9583 28.4754C56.9583 28.4754 59.8146 40.4387 76.4484 46.6732L84.0093 47.6842" fill="#58C3E9"/>
<path d="M48.3893 94.0218L43.3488 96.0437C42.6767 96.3807 42.0046 95.8752 42.0046 95.2012V70.095C42.0046 69.2525 42.5087 68.41 43.1808 68.2415L48.2213 66.2196C48.8934 65.8826 49.5655 66.3881 49.5655 67.0621L49.7335 91.9998C49.7335 92.8423 49.0614 93.6848 48.3893 94.0218Z" fill="#008FFF"/>
<path d="M53.2619 68.073L53.4299 88.1242C53.4299 88.1242 55.2781 87.1132 57.1263 87.4502C58.9745 87.7872 75.6084 90.8202 77.1205 90.4832C78.6327 90.3147 95.0985 80.8788 95.2665 80.7103C95.4345 80.5418 96.1066 80.7103 98.1228 78.6883C100.139 76.4979 104.844 70.2634 106.692 68.073C108.54 65.714 110.388 61.8385 108.372 61.8385C108.372 61.8385 109.548 59.985 109.212 58.8056C109.044 57.6261 107.364 55.2671 103.667 58.6371C99.971 62.1755 97.9548 67.062 92.2422 69.7579C86.5296 72.4539 84.6814 73.2964 82.4971 73.2964C80.3129 73.2964 77.7926 72.6224 77.1205 72.7909C77.1205 72.7909 79.6408 71.2744 82.1611 70.6004C84.6814 69.9264 88.7138 68.2415 89.5539 68.073C90.394 67.9045 94.5944 67.5675 96.2746 64.366C97.9548 61.1645 98.2909 58.3001 96.1066 57.7946C93.7544 57.4576 86.5296 57.7946 82.3291 59.985C82.3291 59.985 80.3129 60.659 77.7926 59.8165C75.2723 59.311 66.8714 57.4576 53.2619 68.073Z" fill="#008FFF"/>
<path d="M84.1773 47.5165C84.1773 47.5165 66.3673 44.315 61.9988 31.0036C57.6304 17.8608 69.5597 9.77286 74.6002 8.93037C79.6408 8.08788 84.1773 11.7948 84.1773 11.7948C84.1773 11.7948 87.2016 5.05491 94.4264 2.69594C101.651 0.336966 105.852 5.56041 106.188 7.07689C106.524 8.59338 111.396 24.9377 84.1773 47.5165Z" fill="#008FFF"/>
<path d="M66.226 16.2808C62.7404 22.2246 59.5337 35.6628 74.5914 41.865C69.7115 39.2808 61.2067 30.5459 66.226 16.2808Z" fill="white"/>
<path d="M55.0721 85.2809V69.7753L56.4663 69L55.0721 85.2809Z" fill="white"/>
</g>
<defs>
<linearGradient id="paint0_linear" x1="3.27133" y1="101.07" x2="144.208" y2="85.1357" gradientUnits="userSpaceOnUse">
<stop stop-color="#C0E4F2"/>
<stop offset="1" stop-color="#008BBE"/>
</linearGradient>
<linearGradient id="paint1_linear" x1="0.727185" y1="94.2875" x2="141.679" y2="78.3516" gradientUnits="userSpaceOnUse">
<stop offset="0.1477" stop-color="#F5FBFF"/>
<stop offset="0.9608" stop-color="#ABDCF0"/>
</linearGradient>
<linearGradient id="paint2_linear" x1="33.744" y1="109.641" x2="92.0508" y2="109.641" gradientUnits="userSpaceOnUse">
<stop stop-color="#5DC5EA"/>
<stop offset="1" stop-color="#008BBE" stop-opacity="0"/>
</linearGradient>
<linearGradient id="paint3_linear" x1="51.2275" y1="96.5045" x2="142.145" y2="96.5045" gradientUnits="userSpaceOnUse">
<stop stop-color="#5DC5EA"/>
<stop offset="1" stop-color="#008BBE" stop-opacity="0"/>
</linearGradient>
<clipPath id="clip0">
<rect width="145" height="138" fill="white"/>
</clipPath>
</defs>
</svg>
