<svg width="144" height="124" viewBox="0 0 144 124" fill="none" xmlns="http://www.w3.org/2000/svg">
<g clip-path="url(#clip0)">
<path d="M143.833 81.7738C144.667 104.62 110.461 122.897 72.4172 124C33.372 125.103 2.33604 104.62 2.33604 81.7738C2.33604 58.9276 34.0394 40.3354 73.0846 40.3354C112.13 40.3354 142.665 49.9466 143.833 81.7738Z" fill="url(#paint0_linear)"/>
<path d="M70.7486 117.067C109.822 117.067 141.497 98.5146 141.497 75.6288C141.497 52.743 109.822 34.1904 70.7486 34.1904C31.6752 34.1904 0 52.743 0 75.6288C0 98.5146 31.6752 117.067 70.7486 117.067Z" fill="url(#paint1_linear)"/>
<path opacity="0.2" d="M45.7196 76.2593L30.3685 81.6163L37.7103 112.025C37.7103 112.025 42.5492 114.231 49.7242 115.334C56.8992 116.437 70.7486 117.855 79.0915 116.752C87.4345 115.649 100.283 113.916 105.956 111.395L45.7196 76.2593Z" fill="url(#paint2_linear)"/>
<path opacity="0.2" d="M52.7277 72.7927L87.4345 115.964C87.4345 115.964 107.625 114.546 121.14 104.777L128.482 99.578L133.321 95.0087L75.0869 65.0723L52.7277 72.7927Z" fill="url(#paint3_linear)"/>
<path opacity="0.2" d="M91.4392 55.4609L78.7578 62.5512L126.313 101.153C126.313 101.153 140.997 94.6935 141.497 76.8891L141.33 73.7379L91.4392 55.4609Z" fill="url(#paint4_linear)"/>
<path d="M68.7462 17.3315L52.394 23.7915V73.423L56.8992 74.0533L65.9096 65.2299C65.9096 65.2299 69.7474 33.0876 69.7474 31.8271C69.7474 30.5666 72.0834 21.113 72.0834 20.6403C72.0834 20.1676 73.2514 18.2769 73.2514 18.2769L68.7462 17.3315Z" fill="#73B2E2"/>
<path d="M73.2514 67.2781L56.8992 74.0532V24.5793L73.0846 18.2769L73.2514 67.2781Z" fill="#008FFF"/>
<path d="M52.394 23.7915L56.8992 24.5793V74.0533L52.394 73.2655V23.7915Z" fill="url(#paint5_linear)"/>
<path d="M43.2167 36.8691L30.0348 42.0686V81.9314L33.5388 82.5616L40.7138 75.4714C40.7138 75.4714 43.7173 49.6315 43.7173 48.5286C43.7173 47.4257 45.5527 40.0203 45.5527 39.5477C45.5527 39.075 46.387 37.6569 46.387 37.6569L43.2167 36.8691Z" fill="#73B2E2"/>
<path d="M46.8876 77.0468L33.5388 82.5614V42.8562L46.7207 37.6567L46.8876 77.0468Z" fill="#008FFF"/>
<path d="M30.0348 42.0688L33.5388 42.8566V82.5619L30.0348 81.9316V42.0688Z" fill="url(#paint6_linear)"/>
<path d="M95.1101 0L76.5886 7.24778V64.1271L81.5944 64.9149L91.9397 54.831C91.9397 54.831 96.2781 17.9619 96.2781 16.5438C96.2781 15.1258 98.9479 4.25413 98.9479 3.78145C98.9479 3.30877 100.283 0.945362 100.283 0.945362L95.1101 0Z" fill="#73B2E2"/>
<path d="M100.616 57.1944L81.5944 64.9148L81.7613 8.35065L100.45 0.945312L100.616 57.1944Z" fill="#008FFF"/>
<path d="M76.5886 7.24756L81.7613 8.35048L81.5944 64.9146L76.5886 64.1268V7.24756Z" fill="url(#paint7_linear)"/>
<path d="M97.1124 28.2031C88.7694 22.5309 77.2561 25.367 71.2491 34.663C65.2422 43.9591 68.7462 60.9756 78.7578 62.3936C83.0962 63.0239 93.7752 60.6605 103.453 52.94C111.963 46.3225 105.455 33.8752 97.1124 28.2031ZM78.4241 57.1942C73.0846 53.5703 71.416 43.644 75.4206 37.4991C79.2584 31.5118 88.9363 28.8333 94.4426 32.4572C99.949 36.0811 100.95 46.1649 97.1124 52.1522C93.1078 58.4546 83.7636 60.9756 78.4241 57.1942Z" fill="white"/>
<path d="M75.0869 56.0913L55.0637 87.6034L60.0695 91.5424L63.9073 91.3848L79.5921 62.3937L75.0869 56.0913Z" fill="white"/>
<path d="M63.9073 91.3853L60.0695 91.5428L55.0637 87.6038L58.5678 87.4463L63.9073 91.3853Z" fill="url(#paint8_linear)"/>
<path d="M86.4334 58.9278C86.4334 58.9278 90.7717 58.4551 95.6107 54.201C100.45 49.9468 99.4484 42.2264 99.1147 41.1235C98.9479 39.863 97.9467 31.8274 89.1031 30.882C80.2596 30.0942 89.1031 30.882 89.1031 30.882L93.9421 30.0942C93.9421 30.0942 100.95 31.3547 101.284 31.6698C101.618 31.985 102.952 37.1845 102.952 37.1845C102.952 37.1845 104.454 46.6381 104.287 46.7956C104.287 46.9532 102.786 51.0498 102.452 51.68C102.118 52.3102 99.4484 57.0371 99.2816 57.1946C98.9479 57.3522 87.2677 60.3458 87.2677 60.3458L86.4334 59.0853V58.9278Z" fill="white"/>
<path d="M101.117 28.0458C92.774 22.3737 81.2607 25.2097 75.2538 34.5058C69.2468 43.8019 71.0823 55.934 79.4253 61.6062C87.7682 67.2784 99.2816 64.4423 105.289 55.1462C111.295 45.8501 109.293 33.718 101.117 28.0458ZM82.2619 57.0369C76.9224 53.413 75.2538 43.4867 79.2584 37.3419C83.0962 31.3546 92.774 28.6761 98.2804 32.3C103.787 35.9238 104.788 46.0077 100.95 51.995C96.9455 58.1399 87.7682 60.6608 82.2619 57.0369Z" fill="#0785E6"/>
<path d="M63.9073 91.3852L58.4009 87.6037L78.9247 55.9341L84.431 59.7155L63.9073 91.3852Z" fill="#0785E6"/>
<path d="M94.4426 45.5348C94.6095 42.6987 91.9397 43.9592 91.9397 43.9592C94.1089 43.329 94.1089 40.3353 94.1089 40.3353C94.1089 37.3417 90.2711 38.9173 90.2711 38.9173L83.263 40.9656L83.5967 43.0139C83.5967 43.0139 83.7636 42.6987 84.431 42.3836C85.0985 42.2261 85.0985 42.5412 85.0985 42.5412C85.0985 42.5412 84.9316 49.3163 84.7648 49.7889C84.7648 50.4192 84.431 50.4192 84.431 50.4192L83.4299 50.8919V53.0977C83.4299 53.0977 86.2665 52.1524 90.2711 50.2616C94.9432 48.3709 94.4426 45.5348 94.4426 45.5348ZM87.7682 41.5958C87.7682 41.5958 88.9363 41.2807 90.1043 40.9656C91.2723 40.6505 91.606 42.0685 90.9386 43.0139C90.2711 43.9592 87.7682 44.4319 87.7682 44.4319V41.5958ZM90.9386 47.7407C90.2711 48.8436 87.4345 49.3163 87.4345 49.3163L87.6014 46.0075C87.6014 46.0075 88.9363 45.3773 90.2711 45.0621C91.4392 44.9046 91.606 46.7953 90.9386 47.7407Z" fill="white"/>
<path d="M87.9351 40.0202L86.4334 40.4929V37.3417L87.9351 36.7114V40.0202Z" fill="white"/>
<path d="M89.7706 39.3898L88.2688 39.8625L88.4357 36.7113L89.9374 36.0811L89.7706 39.3898Z" fill="white"/>
<path d="M89.4368 53.4129L87.7682 54.0432L87.9351 50.7344L89.4368 50.2617V53.4129Z" fill="white"/>
<path d="M87.4345 54.2009L85.9328 54.8311V51.3648L87.4345 50.8921V54.2009Z" fill="white"/>
</g>
<defs>
<linearGradient id="paint0_linear" x1="3.24876" y1="89.4831" x2="142.988" y2="72.7042" gradientUnits="userSpaceOnUse">
<stop stop-color="#C0E4F2"/>
<stop offset="1" stop-color="#008BBE"/>
</linearGradient>
<linearGradient id="paint1_linear" x1="0.722169" y1="83.1408" x2="140.476" y2="66.36" gradientUnits="userSpaceOnUse">
<stop offset="0.1477" stop-color="#F5FBFF"/>
<stop offset="0.9608" stop-color="#ABDCF0"/>
</linearGradient>
<linearGradient id="paint2_linear" x1="30.4521" y1="96.773" x2="105.991" y2="96.773" gradientUnits="userSpaceOnUse">
<stop stop-color="#5DC5EA"/>
<stop offset="1" stop-color="#008BBE" stop-opacity="0"/>
</linearGradient>
<linearGradient id="paint3_linear" x1="52.7002" y1="90.4822" x2="133.21" y2="90.4822" gradientUnits="userSpaceOnUse">
<stop stop-color="#5DC5EA"/>
<stop offset="1" stop-color="#008BBE" stop-opacity="0"/>
</linearGradient>
<linearGradient id="paint4_linear" x1="78.7094" y1="78.2382" x2="141.553" y2="78.2382" gradientUnits="userSpaceOnUse">
<stop stop-color="#5DC5EA"/>
<stop offset="1" stop-color="#008BBE" stop-opacity="0"/>
</linearGradient>
<linearGradient id="paint5_linear" x1="52.3631" y1="48.8687" x2="56.8742" y2="48.8687" gradientUnits="userSpaceOnUse">
<stop stop-color="#C0E4F2"/>
<stop offset="1" stop-color="#008BBE"/>
</linearGradient>
<linearGradient id="paint6_linear" x1="29.9829" y1="62.3029" x2="33.6181" y2="62.3029" gradientUnits="userSpaceOnUse">
<stop stop-color="#C0E4F2"/>
<stop offset="1" stop-color="#008BBE"/>
</linearGradient>
<linearGradient id="paint7_linear" x1="76.5618" y1="36.108" x2="81.7373" y2="36.108" gradientUnits="userSpaceOnUse">
<stop stop-color="#C0E4F2"/>
<stop offset="1" stop-color="#008BBE"/>
</linearGradient>
<linearGradient id="paint8_linear" x1="61.6154" y1="88.4722" x2="57.4404" y2="91.9298" gradientUnits="userSpaceOnUse">
<stop stop-color="#008FFF"/>
<stop offset="1" stop-color="#076C73" stop-opacity="0"/>
</linearGradient>
<clipPath id="clip0">
<rect width="144" height="124" fill="white"/>
</clipPath>
</defs>
</svg>
