<svg width="144" height="124" viewBox="0 0 144 124" fill="none" xmlns="http://www.w3.org/2000/svg">
<g clip-path="url(#clip0)">
<path d="M143.833 82.1463C144.667 104.791 110.461 122.907 72.4171 124C33.372 125.093 2.33603 104.791 2.33603 82.1463C2.33603 59.5014 34.0394 41.0732 73.0846 41.0732C112.13 41.0732 142.665 50.4435 143.833 82.1463Z" fill="url(#paint0_linear)"/>
<path d="M70.7486 117.129C109.822 117.129 141.497 98.7395 141.497 76.0555C141.497 53.3715 109.822 34.9824 70.7486 34.9824C31.6752 34.9824 0 53.3715 0 76.0555C0 98.7395 31.6752 117.129 70.7486 117.129Z" fill="url(#paint1_linear)"/>
<path opacity="0.2" d="M69.7474 75.1186L55.5643 116.348C55.5643 116.348 93.7752 122.438 123.977 103.073C123.977 103.073 142.331 92.4536 141.497 76.0556L75.5875 74.0254L69.7474 75.1186Z" fill="url(#paint2_linear)"/>
<path d="M22.6929 53.8793L20.6906 52.7861L16.0186 31.703L20.0232 30.4536L22.3592 31.5468L22.8598 34.0456L25.6964 51.5367L22.6929 53.8793Z" fill="url(#paint3_linear)"/>
<path d="M83.5968 20.6147C83.5968 20.6147 84.5979 9.9951 83.2631 4.37293C81.9282 -1.24923 74.0858 0.312479 74.0858 0.312479L22.3592 21.0833L35.8749 42.4787C35.8749 42.4787 37.5435 42.9472 39.7126 43.5719L83.5968 20.6147Z" fill="url(#paint4_linear)"/>
<path d="M80.7602 29.3604L83.2631 30.1412L66.2434 41.3855L68.9131 52.9422L74.7532 55.5971C74.7532 55.5971 76.4218 48.2571 77.0892 45.2898C77.7567 42.3226 80.7602 42.6349 80.7602 42.6349L84.5979 44.3528L81.4276 80.7407C81.4276 80.7407 76.4218 79.4913 74.4195 78.5543C72.4172 77.6173 72.2503 71.3704 72.2503 71.3704L72.7509 64.3427L62.4056 60.2823L59.2352 46.8515L37.2097 56.378L34.7069 54.9724L30.3685 38.8868L31.7034 39.043L35.8749 46.2269L80.7602 29.3604Z" fill="url(#paint5_linear)"/>
<path d="M18.3546 32.7962L22.6929 53.8794L27.8656 51.8491L22.3592 31.5469L18.3546 32.7962Z" fill="#008FFF"/>
<path d="M39.7126 43.5719L26.0301 22.8011L77.7567 2.03032C77.7567 2.03032 82.5956 0.156262 84.0973 5.77843C85.5991 11.4006 87.4345 22.4888 87.4345 22.4888C87.4345 22.4888 88.6025 24.519 86.0997 25.9245C83.4299 27.0177 39.7126 43.5719 39.7126 43.5719Z" fill="#008FFF"/>
<path d="M31.7034 39.0429L37.0429 56.2217L61.905 46.0706L65.0753 61.2192L76.0881 65.9043L74.5863 73.4006C74.5863 73.4006 74.4195 78.2419 76.4218 79.3351C78.4241 80.2721 81.4276 81.053 81.4276 81.053L87.9351 46.0706L83.0962 43.728C83.0962 43.728 79.9258 43.728 79.2584 46.6953C78.591 49.6625 77.423 56.8464 77.423 56.8464L72.4172 54.66L69.7474 43.1033L84.7648 37.6373L83.263 30.1411L38.3778 47.32L31.7034 39.0429Z" fill="#008FFF"/>
<path d="M77.7566 1.8743C80.5933 0.624926 82.7624 2.9675 82.7624 2.9675C80.4264 -1.09296 74.0857 0.156412 74.0857 0.156412L22.3592 20.9272L26.0301 22.6451L77.7566 1.8743Z" fill="#65C7EE"/>
<path d="M37.2097 45.6022L80.7601 29.3604L83.0962 30.1412L38.3777 47.3201L37.2097 45.6022Z" fill="#65C7EE"/>
<path d="M74.5863 55.5969L77.2561 44.1964C77.2561 44.1964 79.5921 40.7606 83.0962 43.7279C83.0962 43.7279 80.7601 43.5717 79.9258 45.1334C79.0915 46.6951 77.2561 56.8463 77.2561 56.8463L74.5863 55.5969Z" fill="#65C7EE"/>
<path d="M72.4172 64.0303C72.4172 64.0303 71.9166 69.8086 72.0834 72.1512C72.0834 74.3376 72.4171 78.398 76.4218 79.1789C76.4218 79.1789 74.7532 77.7733 74.7532 75.1184C74.5863 72.4635 76.2549 65.9043 76.2549 65.9043L72.4172 64.0303Z" fill="#65C7EE"/>
<path d="M28.3661 23.1135L77.5898 3.27979C77.5898 3.27979 47.0544 17.0229 28.3661 23.1135Z" fill="white"/>
<path d="M18.3546 32.7962L16.0186 31.703L20.0232 30.4536L22.3592 31.5468L18.3546 32.7962Z" fill="#65C7EE"/>
<path d="M19.022 34.0454L22.6929 52.1613C22.6929 52.1613 20.8575 37.1688 19.022 34.0454Z" fill="white"/>
<path d="M37.5435 55.2847L61.2375 45.6021C61.2375 45.6021 43.3835 51.8489 37.5435 55.2847Z" fill="white"/>
</g>
<defs>
<linearGradient id="paint0_linear" x1="3.24875" y1="89.7356" x2="142.952" y2="72.8116" gradientUnits="userSpaceOnUse">
<stop stop-color="#C0E4F2"/>
<stop offset="1" stop-color="#008BBE"/>
</linearGradient>
<linearGradient id="paint1_linear" x1="0.722169" y1="83.4492" x2="140.44" y2="66.5235" gradientUnits="userSpaceOnUse">
<stop offset="0.1477" stop-color="#F5FBFF"/>
<stop offset="0.9608" stop-color="#ABDCF0"/>
</linearGradient>
<linearGradient id="paint2_linear" x1="55.481" y1="95.6157" x2="141.441" y2="95.6157" gradientUnits="userSpaceOnUse">
<stop stop-color="#5DC5EA"/>
<stop offset="1" stop-color="#008BBE" stop-opacity="0"/>
</linearGradient>
<linearGradient id="paint3_linear" x1="15.9231" y1="43.8879" x2="27.0081" y2="41.1338" gradientUnits="userSpaceOnUse">
<stop stop-color="#0767B2"/>
<stop offset="1" stop-color="#008FFF"/>
</linearGradient>
<linearGradient id="paint4_linear" x1="37.3846" y1="29.9551" x2="24.2009" y2="36.1613" gradientUnits="userSpaceOnUse">
<stop stop-color="#008FFF"/>
<stop offset="1" stop-color="#0E3858"/>
</linearGradient>
<linearGradient id="paint5_linear" x1="58.1539" y1="38.3145" x2="42.7533" y2="82.1425" gradientUnits="userSpaceOnUse">
<stop stop-color="#008FFF"/>
<stop offset="1" stop-color="#0E3858"/>
</linearGradient>
<clipPath id="clip0">
<rect width="144" height="124" fill="white"/>
</clipPath>
</defs>
</svg>
