<svg width="104" height="89" viewBox="0 0 104 89" fill="none" xmlns="http://www.w3.org/2000/svg">
<g clip-path="url(#clip0)">
<path d="M103.879 54.3029C104.482 73.0058 79.7775 87.9681 52.3013 88.871C24.102 89.7739 1.68713 73.0058 1.68713 54.3029C1.68713 35.6 24.584 20.3797 52.7833 20.3797C80.9826 20.3797 103.036 28.2478 103.879 54.3029Z" fill="url(#paint0_linear)"/>
<path d="M51.0962 83.3246C79.3158 83.3246 102.192 68.1367 102.192 49.4015C102.192 30.6662 79.3158 15.4783 51.0962 15.4783C22.8765 15.4783 0 30.6662 0 49.4015C0 68.1367 22.8765 83.3246 51.0962 83.3246Z" fill="url(#paint1_linear)"/>
<path d="M82.3082 47.2087C73.8725 38.5667 65.5574 42.9522 65.5574 42.9522C73.3905 40.2435 63.5087 30.9565 63.5087 30.9565C53.7474 21.6696 41.2144 27.7319 41.2144 27.7319L17.4739 36.5029L25.4276 42.9522C25.4276 42.9522 24.825 41.7913 27.1147 41.0174C29.4044 40.2435 30.6095 41.0174 30.6095 41.0174C30.6095 41.0174 51.0962 62.042 52.7833 63.8478C54.4705 65.5246 53.3859 65.9116 53.3859 65.9116L49.8911 67.2014L57.0012 74.1667C57.0012 74.1667 66.4009 70.2971 79.2955 63.4609C93.8772 55.5928 82.3082 47.2087 82.3082 47.2087ZM39.8888 36.8899C39.8888 36.8899 44.2271 35.471 48.2039 34.0522C52.1808 32.6333 58.2063 36.8899 58.2063 39.9855C58.0858 43.0812 48.3245 45.5319 48.3245 45.5319L39.8888 36.8899ZM74.1136 55.2058C74.3546 58.6884 63.7497 61.3971 63.7497 61.3971L53.7474 51.0783C53.7474 51.0783 58.3268 48.8855 62.6651 47.4667C66.883 45.9188 73.8725 51.7232 74.1136 55.2058Z" fill="#30A1DC" fill-opacity="0.14"/>
<path d="M33.2647 30.4907L28.2941 32.1389L19.8824 23.4897L24.8233 21.4259L33.2647 30.4907Z" fill="#30A1DC" fill-opacity="0.14"/>
<path d="M40.5294 27.6065L35.1765 29.6667L27.2352 21.4116L32.2966 19.3478L40.5294 27.6065Z" fill="#30A1DC" fill-opacity="0.14"/>
<path d="M84.8389 73.0058L79.657 75.4565L71.8823 67.574L76.8529 65.1018L84.8389 73.0058Z" fill="#30A1DC" fill-opacity="0.14"/>
<path d="M78.3314 76.1014L73.511 78.6812L65.3823 70.4583L69.9706 68.3981L78.3314 76.1014Z" fill="#30A1DC" fill-opacity="0.14"/>
<path opacity="0.2" d="M46.0348 58.5594L43.5041 82.6797C43.5041 82.6797 59.0498 84.4855 71.3418 80.4869C83.6338 76.4884 87.2491 74.5536 97.2515 63.7188L94.7207 63.4609L53.3859 54.0449L46.0348 58.5594Z" fill="url(#paint2_linear)"/>
<path d="M51.2167 55.9797L49.65 59.4623C49.168 59.7203 45.9142 59.5913 46.0348 58.5594L50.3731 5.1594C50.3731 4.51447 49.65 4.51447 50.1321 4.38548L53.9884 2.70867C54.4704 2.4507 54.832 2.83766 54.832 3.48259L52.1808 54.3029C52.1808 55.0768 51.6987 55.8507 51.2167 55.9797Z" fill="#65C7EE"/>
<path d="M31.212 18.9609C34.8273 17.1551 52.6628 8.12608 78.2109 5.03043C78.8134 4.90144 80.0185 5.2884 79.657 4.90144C74.2341 -1.16088 57.7242 -3.09566 27.7173 7.22318L27.9583 18.4449C28.0788 18.8319 30.8505 19.0898 31.212 18.9609Z" fill="#65C7EE"/>
<path d="M53.7474 57.7854L49.8911 59.3333C49.409 59.5913 48.4449 59.0753 48.4449 58.4304L51.6987 7.73908C51.6987 7.09415 52.1808 6.44922 52.6628 6.19125L56.5191 4.51444C57.0012 4.25647 55.7961 5.28835 55.6755 5.93328L54.7115 56.1086C54.591 56.8826 54.2294 57.5275 53.7474 57.7854Z" fill="#008FFF"/>
<path d="M31.4531 18.9608C35.0684 17.1551 53.7474 8.25505 79.2955 5.1594C79.898 5.03041 79.2955 3.86954 78.8134 3.74056C74.4751 1.67679 59.7729 -3.99857 30.6095 8.77099L30.8505 18.5739C30.8505 18.8319 31.0915 19.0898 31.4531 18.9608Z" fill="#008FFF"/>
<path d="M31.9351 9.80293C31.9351 9.80293 59.8934 -4.1275 77.0058 3.99858C77.0058 3.99858 64.9548 -3.09562 31.9351 9.80293Z" fill="#FEFFFF"/>
<path d="M52.0602 11.7377C52.0602 11.7377 51.5782 47.0797 49.409 58.1725L52.0602 11.7377Z" fill="#FEFFFF"/>
</g>
<defs>
<linearGradient id="paint0_linear" x1="2.34632" y1="60.6866" x2="103.588" y2="49.9619" gradientUnits="userSpaceOnUse">
<stop stop-color="#C0E4F2"/>
<stop offset="1" stop-color="#008BBE"/>
</linearGradient>
<linearGradient id="paint1_linear" x1="0.521567" y1="55.4946" x2="101.774" y2="44.7689" gradientUnits="userSpaceOnUse">
<stop offset="0.1477" stop-color="#F5FBFF"/>
<stop offset="0.9608" stop-color="#ABDCF0"/>
</linearGradient>
<linearGradient id="paint2_linear" x1="43.4842" y1="68.4572" x2="97.2617" y2="68.4572" gradientUnits="userSpaceOnUse">
<stop stop-color="#5DC5EA"/>
<stop offset="1" stop-color="#008BBE" stop-opacity="0"/>
</linearGradient>
<clipPath id="clip0">
<rect width="104" height="89" fill="white"/>
</clipPath>
</defs>
</svg>
