<svg width="104" height="89" viewBox="0 0 104 89" fill="none" xmlns="http://www.w3.org/2000/svg">
<g clip-path="url(#clip0)">
<path d="M1.80765 53.3468C1.80765 34.0568 24.7045 18.3588 52.9038 18.3588C81.1031 18.3588 103.036 26.4739 104 53.3468C104.603 72.6368 79.898 88.0688 52.4218 89C24.2225 89.9313 1.80765 72.6368 1.80765 53.3468Z" fill="url(#paint0_linear)"/>
<path d="M0 48.1585C0 28.8685 22.8969 13.1704 51.0962 13.1704C79.2955 13.1704 102.192 28.8685 102.192 48.1585C102.192 67.4484 79.2955 83.1465 51.0962 83.1465C22.8969 83.1465 0 67.4484 0 48.1585Z" fill="url(#paint1_linear)"/>
<path opacity="0.2" d="M25.7891 54.8102L25.066 78.4903C25.066 78.4903 43.3835 85.4081 59.7729 82.6144C76.1622 79.6876 87.0081 75.6966 96.5284 64.2556C106.049 52.8147 100.987 40.5755 100.987 40.5755L65.4368 32.1943L28.9224 50.5531" fill="url(#paint2_linear)"/>
<path d="M25.3071 23.0149L26.0301 58.9342L29.7659 59.9985L72.0649 34.988L71.9444 0.399103L68.6906 0L25.3071 23.0149Z" fill="#54C3ED"/>
<path d="M29.7659 59.9985L29.1634 23.281L25.3071 23.015L26.0301 58.9342L29.7659 59.9985Z" fill="url(#paint3_linear)"/>
<path d="M29.1634 23.281L71.9444 0.399109L72.0649 34.9881L29.7659 59.9985L29.1634 23.281Z" fill="#008FFF"/>
<path d="M33.9838 28.2033C33.9838 29.1345 33.5017 29.9327 33.0197 29.9327C32.5377 29.9327 32.2966 29.1345 32.2966 28.0703C32.2966 27.139 32.7787 26.3408 33.2607 26.3408C33.7428 26.4739 34.1043 27.2721 33.9838 28.2033Z" fill="white"/>
<path d="M37.3581 26.4738C37.3581 27.272 36.9965 27.9372 36.635 27.8042C36.2735 27.6711 36.0324 27.139 36.0324 26.3408C36.0324 25.5426 36.394 24.8774 36.7555 25.0104C37.117 25.1435 37.4786 25.6756 37.3581 26.4738Z" fill="white"/>
<path d="M40.6118 24.7444C40.6118 25.4096 40.2503 25.9417 40.0093 25.9417C39.7682 25.9417 39.5272 25.4096 39.5272 24.7444C39.5272 24.0793 39.8888 23.5471 40.1298 23.5471C40.3708 23.5471 40.6118 24.0793 40.6118 24.7444Z" fill="white"/>
<path d="M41.6964 36.0523C41.6964 36.7175 41.3349 37.2496 41.0939 37.2496C40.7323 37.2496 40.6118 36.7175 40.6118 36.0523C40.6118 35.3871 40.9733 34.855 41.2144 34.855C41.4554 34.855 41.8169 35.3871 41.6964 36.0523Z" fill="white"/>
<path d="M42.54 48.6906C42.54 49.3558 42.1784 49.8879 41.9374 49.8879C41.5759 49.8879 41.4554 49.3558 41.4554 48.6906C41.4554 48.0254 41.8169 47.4933 42.0579 47.4933C42.4195 47.4933 42.6605 48.0254 42.54 48.6906Z" fill="white"/>
<path d="M37.9606 37.9148C37.9606 38.713 37.5991 39.3782 37.2375 39.2451C36.876 39.2451 36.635 38.58 36.635 37.7818C36.635 36.9836 36.9965 36.3184 37.3581 36.4514C37.7196 36.4514 37.9606 37.1166 37.9606 37.9148Z" fill="white"/>
<path d="M38.5631 50.8192C38.5631 51.6174 38.2016 52.2825 37.8401 52.1495C37.4786 52.0165 37.2375 51.4843 37.2375 50.6861C37.2375 49.8879 37.5991 49.2227 37.9606 49.3558C38.3221 49.4888 38.5631 50.021 38.5631 50.8192Z" fill="white"/>
<path d="M33.9838 40.3094C33.9838 41.2407 33.5017 42.0389 33.0197 42.0389C32.5377 42.0389 32.2966 41.2407 32.2966 40.1764C32.2966 39.2452 32.7787 38.447 33.2607 38.447C33.7428 38.58 34.1043 39.3782 33.9838 40.3094Z" fill="white"/>
<path d="M33.9838 53.3468C33.9838 54.278 33.5017 55.0762 33.0197 55.0762C32.5377 55.0762 32.2966 54.278 32.2966 53.2138C32.2966 52.2825 32.7787 51.4843 33.2607 51.4843C33.7428 51.6173 34.1043 52.4156 33.9838 53.3468Z" fill="white"/>
<path d="M70.4983 8.38116L42.1784 23.0149L42.299 24.6114L70.4983 9.84454V8.38116Z" fill="white"/>
<path d="M70.6188 19.8221L44.3476 33.7908V34.9881L70.6188 21.0195V19.8221Z" fill="white"/>
<path d="M70.7393 31.9282L45.3117 45.8968L45.4322 47.2272L70.7393 32.9925V31.9282Z" fill="white"/>
<path d="M29.6454 25.6756L30.489 64.9208L34.5863 66.2511L80.7416 38.846L80.5006 1.06426L77.0058 0.665161L29.6454 25.6756Z" fill="#65C7EE"/>
<path d="M34.5863 66.2511L33.8633 26.0747L29.6454 25.6756L30.489 64.9207L34.5863 66.2511Z" fill="url(#paint4_linear)"/>
<path d="M33.8633 26.0747L80.5006 1.06427L80.7416 38.846L34.5863 66.2511L33.8633 26.0747Z" fill="#008FFF"/>
<path d="M39.1657 31.3961C39.1657 32.4604 38.6837 33.2586 38.2016 33.2586C37.7196 33.2586 37.3581 32.3273 37.3581 31.2631C37.3581 30.1988 37.8401 29.4006 38.3221 29.4006C38.8042 29.4006 39.1657 30.3318 39.1657 31.3961Z" fill="white"/>
<path d="M42.781 29.5337C42.781 30.4649 42.4195 31.1301 41.9374 30.997C41.5759 30.997 41.2144 30.1988 41.2144 29.4006C41.2144 28.4694 41.5759 27.8042 42.0579 27.9372C42.54 27.9372 42.9015 28.6024 42.781 29.5337Z" fill="white"/>
<path d="M46.2758 27.6711C46.2758 28.3363 45.9143 29.0015 45.5527 28.8685C45.1912 28.7354 44.9502 28.2033 44.9502 27.5381C44.9502 26.8729 45.3117 26.2078 45.6732 26.3408C46.1553 26.3408 46.3963 27.006 46.2758 27.6711Z" fill="white"/>
<path d="M47.6014 39.9103C47.6014 40.5754 47.2399 41.2406 46.8783 41.1076C46.5168 40.9745 46.2758 40.4424 46.2758 39.7772C46.2758 39.1121 46.6373 38.4469 46.9988 38.5799C47.3604 38.5799 47.6014 39.2451 47.6014 39.9103Z" fill="white"/>
<path d="M48.5655 53.7459C48.5655 54.4111 48.2039 55.0762 47.8424 54.9432C47.4809 54.8102 47.2399 54.278 47.2399 53.6129C47.2399 52.9477 47.6014 52.2825 47.9629 52.4156C48.3244 52.5486 48.5655 53.0807 48.5655 53.7459Z" fill="white"/>
<path d="M43.5041 42.0388C43.5041 42.9701 43.1425 43.6353 42.6605 43.5022C42.299 43.5022 41.9374 42.704 41.9374 41.9058C41.9374 40.9746 42.299 40.3094 42.781 40.4424C43.263 40.5755 43.5041 41.1076 43.5041 42.0388Z" fill="white"/>
<path d="M44.1066 56.1405C44.1066 57.0718 43.7451 57.7369 43.263 57.6039C42.781 57.4709 42.54 56.8057 42.54 56.0075C42.54 55.0762 42.9015 54.4111 43.3835 54.5441C43.8656 54.6771 44.1066 55.2093 44.1066 56.1405Z" fill="white"/>
<path d="M39.1657 44.5665C39.1657 45.6308 38.6837 46.429 38.2016 46.429C37.7196 46.429 37.3581 45.4977 37.3581 44.4335C37.3581 43.3692 37.8401 42.571 38.3221 42.571C38.8042 42.704 39.1657 43.5022 39.1657 44.5665Z" fill="white"/>
<path d="M39.1657 58.8012C39.1657 59.8654 38.6837 60.6637 38.2016 60.6637C37.7196 60.6637 37.3581 59.7324 37.3581 58.6681C37.3581 57.6039 37.8401 56.8057 38.3221 56.8057C38.8042 56.9387 39.1657 57.7369 39.1657 58.8012Z" fill="white"/>
<path d="M78.934 9.71149L48.0834 25.8086V27.4051L78.934 11.3079V9.71149Z" fill="white"/>
<path d="M79.175 22.3497L50.3731 37.5157L50.4936 38.846L79.0545 23.547L79.175 22.3497Z" fill="white"/>
<path d="M79.2955 35.5201L51.5782 50.8191V52.1494L79.2955 36.7175V35.5201Z" fill="white"/>
</g>
<defs>
<linearGradient id="paint0_linear" x1="2.34633" y1="59.8117" x2="103.655" y2="49.4065" gradientUnits="userSpaceOnUse">
<stop stop-color="#C0E4F2"/>
<stop offset="1" stop-color="#008BBE"/>
</linearGradient>
<linearGradient id="paint1_linear" x1="0.521567" y1="54.4568" x2="101.841" y2="44.0505" gradientUnits="userSpaceOnUse">
<stop offset="0.1477" stop-color="#F5FBFF"/>
<stop offset="0.9608" stop-color="#ABDCF0"/>
</linearGradient>
<linearGradient id="paint2_linear" x1="23.4442" y1="62.3067" x2="103.068" y2="54.1288" gradientUnits="userSpaceOnUse">
<stop stop-color="#5DC5EA"/>
<stop offset="1" stop-color="#008BBE" stop-opacity="0"/>
</linearGradient>
<linearGradient id="paint3_linear" x1="32.1176" y1="41.6158" x2="22.939" y2="41.2609" gradientUnits="userSpaceOnUse">
<stop stop-color="#008FFF"/>
<stop offset="1" stop-color="#008BBE"/>
</linearGradient>
<linearGradient id="paint4_linear" x1="34.7941" y1="46.9722" x2="27.5266" y2="46.6172" gradientUnits="userSpaceOnUse">
<stop stop-color="#018EF0"/>
<stop offset="1" stop-color="#008BBE"/>
</linearGradient>
<clipPath id="clip0">
<rect width="104" height="89" fill="white"/>
</clipPath>
</defs>
</svg>
