<svg width="104" height="89" viewBox="0 0 104 89" fill="none" xmlns="http://www.w3.org/2000/svg">
<path d="M103.879 53.9985C104.482 72.8655 79.7775 87.9591 52.3013 88.8699C24.102 89.7807 1.68713 72.8655 1.68713 53.9985C1.68713 35.1316 24.584 19.7778 52.7833 19.7778C80.9826 19.7778 103.036 27.7149 103.879 53.9985Z" fill="url(#paint0_linear)"/>
<path d="M51.0962 83.2749C79.3158 83.2749 102.192 67.9537 102.192 49.0541C102.192 30.1545 79.3158 14.8334 51.0962 14.8334C22.8765 14.8334 0 30.1545 0 49.0541C0 67.9537 22.8765 83.2749 51.0962 83.2749Z" fill="url(#paint1_linear)"/>
<path opacity="0.2" d="M14.8227 63.8874L16.5098 74.2968C16.5098 74.2968 31.6941 83.6652 47.1193 83.2748C62.5446 82.8845 86.8876 81.4532 99.3001 60.8947C99.3001 60.8947 103.036 54.2588 102.192 45.8012L81.7057 37.9941L14.8227 63.8874Z" fill="url(#paint2_linear)"/>
<path d="M77.4878 30.3172L20.9687 67.7909C20.9687 67.7909 14.4612 67.4006 11.5689 59.9839C8.67669 52.5672 16.9919 37.0833 25.4276 36.9532C25.4276 36.9532 28.3198 18.8669 43.022 19.1272C43.022 19.1272 45.4322 5.85525 56.037 1.30115C66.6419 -3.25294 74.3545 6.11548 72.1854 13.2719C72.1854 13.2719 79.7775 3.51314 86.6466 15.0936C91.4669 23.0307 77.4878 30.3172 77.4878 30.3172Z" fill="#65C7EE"/>
<path d="M83.5133 38.1243L23.1379 67.4006C23.1379 67.4006 16.1483 69.8728 13.2561 62.4561C10.3639 55.0395 17.8355 38.905 27.3557 39.0351C27.3557 39.0351 29.0429 19.2573 45.9143 21.8597C45.9143 21.8597 47.6014 7.80703 58.0858 3.25293C68.5701 -1.30116 74.7161 8.19738 73.029 14.9635C73.029 14.9635 81.9467 6.89621 86.6466 15.0936C91.3465 23.1608 83.5133 38.1243 83.5133 38.1243Z" fill="#008FFF"/>
<path d="M63.6292 33.31C63.5087 30.7076 61.219 32.0088 61.219 32.0088C63.1471 31.2281 62.9061 28.4956 62.9061 28.4956C62.6651 25.7632 59.1703 27.4547 59.1703 27.4547L53.1448 29.9269L53.5064 31.8787C53.5064 31.8787 53.6269 31.4883 54.2294 31.3582C54.832 31.098 54.832 31.3582 54.832 31.3582C54.832 31.3582 55.073 37.6038 55.1935 38.1243C55.314 38.6448 54.9525 38.7749 54.9525 38.7749L54.1089 39.1652L54.2294 41.2471C54.2294 41.2471 56.6396 40.2062 60.2549 38.1243C64.3522 35.9123 63.6292 33.31 63.6292 33.31ZM57.2422 30.1872C57.2422 30.1872 58.3268 29.7968 59.2908 29.4065C60.2549 29.0161 60.737 30.3173 60.1344 31.2281C59.6524 32.1389 57.3627 32.7895 57.3627 32.7895L57.2422 30.1872ZM60.6164 35.6521C60.0139 36.693 57.6037 37.4737 57.6037 37.4737L57.4832 34.3509C57.4832 34.3509 58.6883 33.7003 59.7729 33.31C60.8575 32.9196 61.219 34.6111 60.6164 35.6521Z" fill="white"/>
<path d="M57.2422 28.6257L55.9166 29.1462L55.7961 26.2836L57.1217 25.6331L57.2422 28.6257Z" fill="white"/>
<path d="M58.9293 27.9752L57.6037 28.4956L57.4832 25.5029L58.8088 24.9825L58.9293 27.9752Z" fill="white"/>
<path d="M59.6524 40.9868L58.2062 41.6374L58.0857 38.6447L59.4113 38.1243L59.6524 40.9868Z" fill="white"/>
<path d="M57.8447 41.8977L56.5191 42.5483L56.3986 39.4255L57.7242 38.905L57.8447 41.8977Z" fill="white"/>
<g opacity="0.36">
<path opacity="0.18" d="M80.5006 58.943C77.3673 55.69 74.234 57.2515 74.234 57.2515C77.1263 56.2105 73.511 52.6974 73.511 52.6974C69.7752 49.1842 65.0753 51.5263 65.0753 51.5263L56.1576 54.9093L59.1703 57.3816C59.1703 57.3816 58.9293 56.9912 59.7729 56.6009C60.6164 56.3406 61.0985 56.6009 61.0985 56.6009C61.0985 56.6009 68.8111 64.6681 69.4136 65.3187C70.0162 65.9693 69.6547 66.0994 69.6547 66.0994L68.3291 66.6199L70.9803 69.2222C70.9803 69.2222 74.4751 67.7909 79.416 65.1886C84.8389 62.1959 80.5006 58.943 80.5006 58.943ZM64.5933 55.0395C64.5933 55.0395 66.2804 54.519 67.7265 53.9985C69.1726 53.4781 71.4623 55.0395 71.4623 56.2105C71.4623 57.3816 67.7265 58.2924 67.7265 58.2924L64.5933 55.0395ZM77.4878 62.0658C77.6083 63.367 73.6315 64.4079 73.6315 64.4079L69.8957 60.5044C69.8957 60.5044 71.5828 59.7237 73.27 59.0731C74.7161 58.5526 77.3673 60.7646 77.4878 62.0658Z" fill="#0575E0"/>
<path opacity="0.18" d="M61.9768 52.6801L60.1628 53.2179L57.7442 50.7169L59.5582 49.7353L61.9768 52.6801Z" fill="#0575E0"/>
<path opacity="0.18" d="M65 51.3713L62.8837 52.0257L60.1628 49.4081L61.9768 48.7537L65 51.3713Z" fill="#0575E0"/>
<path opacity="0.18" d="M81.3256 68.7132L79.5116 69.6948L76.7907 66.75L78.3023 66.0956L81.3256 68.7132Z" fill="#0575E0"/>
<path opacity="0.18" d="M79.0544 70.0029L77.2468 70.9137L74.0698 68.0588L76.186 67.0772L79.0544 70.0029Z" fill="#0575E0"/>
</g>
<defs>
<linearGradient id="paint0_linear" x1="2.34632" y1="60.4223" x2="103.607" y2="49.7888" gradientUnits="userSpaceOnUse">
<stop stop-color="#C0E4F2"/>
<stop offset="1" stop-color="#008BBE"/>
</linearGradient>
<linearGradient id="paint1_linear" x1="0.521567" y1="55.1847" x2="101.793" y2="44.5502" gradientUnits="userSpaceOnUse">
<stop offset="0.1477" stop-color="#F5FBFF"/>
<stop offset="0.9608" stop-color="#ABDCF0"/>
</linearGradient>
<linearGradient id="paint2_linear" x1="55.1804" y1="48.0609" x2="68.5114" y2="81.9831" gradientUnits="userSpaceOnUse">
<stop stop-color="#5DC5EA"/>
<stop offset="1" stop-color="#008BBE" stop-opacity="0"/>
</linearGradient>
</defs>
</svg>
