<svg width="104" height="89" viewBox="0 0 104 89" fill="none" xmlns="http://www.w3.org/2000/svg">
<path d="M103.879 59.0363C104.482 75.1878 79.7775 88.1089 52.3013 88.8887C24.102 89.6684 1.68713 75.1878 1.68713 59.0363C1.68713 42.8849 24.584 29.741 52.7833 29.741C80.9826 29.741 103.036 36.5357 103.879 59.0363Z" fill="url(#paint0_linear)"/>
<path d="M51.0962 84.0988C79.3158 84.0988 102.192 70.9828 102.192 54.8034C102.192 38.624 79.3158 25.5081 51.0962 25.5081C22.8765 25.5081 0 38.624 0 54.8034C0 70.9828 22.8765 84.0988 51.0962 84.0988Z" fill="url(#paint1_linear)"/>
<path opacity="0.2" fill-rule="evenodd" clip-rule="evenodd" d="M49.2885 57.5883L41.2144 83.4306C41.2144 83.4306 49.5295 85.1014 60.3754 83.6534C71.2213 82.2053 80.0185 80.0889 89.9003 73.8511C89.9003 73.8511 104.241 65.6083 101.831 51.2391C101.831 51.2391 101.228 49.5682 100.626 48.0088L57.5 54L49.2885 57.5883Z" fill="url(#paint2_linear)"/>
<path fill-rule="evenodd" clip-rule="evenodd" d="M50.1321 58.0338C50.1321 58.0338 31.5736 52.0188 25.3071 29.184C31.9351 25.5081 36.876 17.7109 36.9965 10.3592L65.0753 0L68.2086 1.33667L67.9676 9.13392L72.7879 10.3592C72.7879 10.3592 74.7161 10.582 76.2827 9.91364L80.139 11.2503L74.7161 18.4906L56.0371 54.6921L54.7115 58.4793L50.1321 58.0338Z" fill="#65C7EE"/>
<path fill-rule="evenodd" clip-rule="evenodd" d="M80.5006 11.2504C74.7161 38.5407 54.7115 58.4794 54.7115 58.4794C54.7115 58.4794 34.4658 53.3555 28.1993 30.4093C34.8274 26.7335 39.7683 18.9362 39.8888 11.5845L68.0881 1.22534C68.3291 8.57703 73.6315 12.6984 80.5006 11.2504Z" fill="#008FFF"/>
<path d="M61.5805 30.9663C61.701 28.4043 59.1703 29.4068 59.1703 29.4068C61.219 28.7385 61.219 25.9537 61.219 25.9537C61.219 23.169 57.4832 24.6171 57.4832 24.6171L50.9756 26.7335L51.2167 28.7385C51.2167 28.7385 51.3372 28.4043 51.9397 28.1815C52.5423 27.9588 52.6628 28.2929 52.6628 28.2929C52.6628 28.2929 52.4218 34.5307 52.4218 35.0877C52.4218 35.6446 52.1807 35.6446 52.1807 35.6446L51.2167 35.9788V38.0952C51.2167 38.0952 53.8679 37.2041 57.7242 35.5332C62.1831 33.5282 61.5805 30.9663 61.5805 30.9663ZM55.314 27.2904C55.314 27.2904 56.3986 26.9562 57.4832 26.6221C58.5678 26.2879 58.9293 27.6246 58.2062 28.4043C57.6037 29.2954 55.1935 29.741 55.1935 29.741L55.314 27.2904ZM58.3268 33.0827C57.6037 34.0852 55.073 34.6421 55.073 34.6421L55.1935 31.5232C55.1935 31.5232 56.5191 30.9663 57.7242 30.6321C58.8088 30.2979 58.9293 32.0802 58.3268 33.0827Z" fill="white"/>
<path d="M55.314 25.8422L53.9884 26.2878L54.1089 23.2803L55.4345 22.8347L55.314 25.8422Z" fill="white"/>
<path d="M57.2422 25.2853L55.7961 25.7309L55.9166 22.7234L57.3627 22.2778L57.2422 25.2853Z" fill="white"/>
<path d="M56.8807 38.2066L55.314 38.7636L55.4345 35.8674L56.8807 35.4219V38.2066Z" fill="white"/>
<path d="M54.9525 38.9863L53.5064 39.6546L53.6269 36.4243L54.9525 35.9788V38.9863Z" fill="white"/>
<path d="M43.022 11.9186L66.1599 3.56445C66.1599 3.56445 57.8447 8.35419 43.022 11.9186Z" fill="white"/>
<defs>
<linearGradient id="paint0_linear" x1="2.34632" y1="64.5494" x2="103.206" y2="52.1773" gradientUnits="userSpaceOnUse">
<stop stop-color="#C0E4F2"/>
<stop offset="1" stop-color="#008BBE"/>
</linearGradient>
<linearGradient id="paint1_linear" x1="0.521567" y1="60.0657" x2="101.392" y2="47.6923" gradientUnits="userSpaceOnUse">
<stop offset="0.1477" stop-color="#F5FBFF"/>
<stop offset="0.9608" stop-color="#ABDCF0"/>
</linearGradient>
<linearGradient id="paint2_linear" x1="41.2747" y1="66.0159" x2="102.204" y2="66.0159" gradientUnits="userSpaceOnUse">
<stop stop-color="#5DC5EA"/>
<stop offset="1" stop-color="#008BBE" stop-opacity="0"/>
</linearGradient>
</defs>
</svg>
