<svg width="104" height="89" viewBox="0 0 104 89" fill="none" xmlns="http://www.w3.org/2000/svg">
<g clip-path="url(#clip0)">
<path d="M103.879 58.6925C104.482 75.0902 79.7775 88.2084 52.3013 89C24.102 89.7916 1.68713 75.0902 1.68713 58.6925C1.68713 42.2948 24.584 28.9504 52.7833 28.9504C80.9826 28.9504 103.036 35.8488 103.879 58.6925Z" fill="url(#paint0_linear)"/>
<path d="M51.0962 84.0242C79.3158 84.0242 102.192 70.7082 102.192 54.2821C102.192 37.856 79.3158 24.54 51.0962 24.54C22.8765 24.54 0 37.856 0 54.2821C0 70.7082 22.8765 84.0242 51.0962 84.0242Z" fill="url(#paint1_linear)"/>
<path opacity="0.2" d="M33.0197 54.7344L21.9328 58.5794L27.2352 80.4053C27.2352 80.4053 30.73 81.9885 35.9119 82.7801C41.0939 83.5717 51.0962 84.5895 57.1217 83.7979C63.1472 83.0063 72.4264 81.7623 76.5238 79.9529L33.0197 54.7344Z" fill="url(#paint2_linear)"/>
<path opacity="0.2" d="M38.0811 52.2466L63.1472 83.2326C63.1472 83.2326 77.7288 82.2149 87.4901 75.2034L92.7926 71.4715L96.2874 68.192L54.2294 46.7053L38.0811 52.2466Z" fill="url(#paint3_linear)"/>
<path opacity="0.2" d="M66.0394 39.8069L56.8806 44.8958L91.2259 72.6023C91.2259 72.6023 101.831 67.9657 102.192 55.1868L102.072 52.9251L66.0394 39.8069Z" fill="url(#paint4_linear)"/>
<path d="M49.6501 12.4397L37.8401 17.0763V52.6989L41.0939 53.1513L47.6014 46.8184C47.6014 46.8184 50.3731 23.7485 50.3731 22.8438C50.3731 21.9391 52.0603 15.1538 52.0603 14.8145C52.0603 14.4753 52.9038 13.1182 52.9038 13.1182L49.6501 12.4397Z" fill="#73B2E2"/>
<path d="M52.9038 48.2884L41.0939 53.1512V17.6417L52.7833 13.1182L52.9038 48.2884Z" fill="#008FFF"/>
<path d="M37.8401 17.0764L41.0939 17.6419V53.1514L37.8401 52.5859V17.0764Z" fill="url(#paint5_linear)"/>
<path d="M31.212 26.4624L21.6918 30.1943V58.8055L24.2225 59.2578L29.4044 54.1689C29.4044 54.1689 31.5736 35.6225 31.5736 34.8309C31.5736 34.0393 32.8992 28.7242 32.8992 28.3849C32.8992 28.0456 33.5017 27.0278 33.5017 27.0278L31.212 26.4624Z" fill="#73B2E2"/>
<path d="M33.8633 55.2998L24.2225 59.2578V30.7597L33.7427 27.0278L33.8633 55.2998Z" fill="#008FFF"/>
<path d="M21.6918 30.1943L24.2225 30.7598V59.2579L21.6918 58.8055V30.1943Z" fill="url(#paint6_linear)"/>
<path d="M68.6906 0L55.314 5.20203V46.0267L58.9293 46.5921L66.4009 39.3545C66.4009 39.3545 69.5342 12.892 69.5342 11.8742C69.5342 10.8564 71.4623 3.05337 71.4623 2.7141C71.4623 2.37484 72.4264 0.678526 72.4264 0.678526L68.6906 0Z" fill="#73B2E2"/>
<path d="M72.6674 41.0508L58.9293 46.5921L59.0498 5.99359L72.5469 0.678467L72.6674 41.0508Z" fill="#008FFF"/>
<path d="M55.314 5.20215L59.0498 5.99376L58.9293 46.5922L55.314 46.0268V5.20215Z" fill="url(#paint7_linear)"/>
<path d="M70.1367 20.2428C64.1112 16.1716 55.7961 18.2072 51.4577 24.8794C47.1194 31.5515 49.6501 43.765 56.8807 44.7828C60.0139 45.2351 67.7265 43.5388 74.7161 37.9975C80.8621 33.2478 76.1622 24.3139 70.1367 20.2428ZM56.6396 41.0509C52.7833 38.4499 51.5782 31.3254 54.4705 26.9149C57.2422 22.6176 64.2318 20.6951 68.2086 23.2961C72.1854 25.8972 72.9085 33.1348 70.1367 37.4321C67.2445 41.9556 60.496 43.765 56.6396 41.0509Z" fill="white"/>
<path d="M54.2294 40.2593L39.7682 62.8768L43.3835 65.704L46.1553 65.5909L57.4832 44.7828L54.2294 40.2593Z" fill="white"/>
<path d="M46.1553 65.5909L43.3835 65.7039L39.7682 62.8768L42.299 62.7637L46.1553 65.5909Z" fill="url(#paint8_linear)"/>
<path d="M62.4241 42.2949C62.4241 42.2949 65.5574 41.9556 69.0521 38.9023C72.5469 35.8489 71.8239 30.3076 71.5828 29.516C71.4623 28.6113 70.7393 22.8438 64.3523 22.1653C57.9652 21.5999 64.3523 22.1653 64.3523 22.1653L67.847 21.5999C67.847 21.5999 72.9085 22.5046 73.1495 22.7307C73.3905 22.9569 74.3546 26.6888 74.3546 26.6888C74.3546 26.6888 75.4392 33.4741 75.3187 33.5871C75.3187 33.7002 74.2341 36.6405 73.993 37.0929C73.752 37.5452 71.8239 40.9378 71.7034 41.0509C71.4623 41.164 63.0266 43.3127 63.0266 43.3127L62.4241 42.408V42.2949Z" fill="white"/>
<path d="M73.029 20.1297C67.0035 16.0586 58.6883 18.0942 54.3499 24.7663C50.0116 31.4385 51.3372 40.1462 57.3627 44.2174C63.3882 48.2886 71.7034 46.253 76.0417 39.5808C80.3801 32.9086 78.934 24.2009 73.029 20.1297ZM59.4114 40.9379C55.555 38.3368 54.3499 31.2123 57.2422 26.8019C60.0139 22.5046 67.0035 20.5821 70.9803 23.1831C74.9571 25.7841 75.6802 33.0217 72.9085 37.3191C70.0162 41.7295 63.3882 43.5389 59.4114 40.9379Z" fill="#0785E6"/>
<path d="M46.1553 65.591L42.1785 62.8769L57.0012 40.1462L60.978 42.8603L46.1553 65.591Z" fill="#0785E6"/>
<path d="M68.2086 32.6823C68.3291 30.6468 66.4009 31.5515 66.4009 31.5515C67.9676 31.0991 67.9676 28.9504 67.9676 28.9504C67.9676 26.8018 65.1958 27.9327 65.1958 27.9327L60.1344 29.4028L60.3754 30.8729C60.3754 30.8729 60.4959 30.6468 60.978 30.4206C61.46 30.3075 61.46 30.5337 61.46 30.5337C61.46 30.5337 61.3395 35.3964 61.219 35.7357C61.219 36.1881 60.978 36.1881 60.978 36.1881L60.2549 36.5273V38.1105C60.2549 38.1105 62.3036 37.432 65.1958 36.075C68.5701 34.7179 68.2086 32.6823 68.2086 32.6823ZM63.3882 29.8551C63.3882 29.8551 64.2317 29.629 65.0753 29.4028C65.9189 29.1766 66.1599 30.1944 65.6779 30.8729C65.1958 31.5515 63.3882 31.8907 63.3882 31.8907V29.8551ZM65.6779 34.2656C65.1958 35.0572 63.1472 35.3964 63.1472 35.3964L63.2677 33.0216C63.2677 33.0216 64.2317 32.5693 65.1958 32.3431C66.0394 32.23 66.1599 33.587 65.6779 34.2656Z" fill="white"/>
<path d="M63.5087 28.7242L62.4241 29.0635V26.8017L63.5087 26.3494V28.7242Z" fill="white"/>
<path d="M64.8343 28.2718L63.7497 28.6111L63.8702 26.3493L64.9548 25.897L64.8343 28.2718Z" fill="white"/>
<path d="M64.5933 38.3367L63.3882 38.7891L63.5087 36.4142L64.5933 36.075V38.3367Z" fill="white"/>
<path d="M63.1472 38.9022L62.0626 39.3545V36.8666L63.1472 36.5273V38.9022Z" fill="white"/>
</g>
<defs>
<linearGradient id="paint0_linear" x1="2.34632" y1="64.2258" x2="103.251" y2="52.0342" gradientUnits="userSpaceOnUse">
<stop stop-color="#C0E4F2"/>
<stop offset="1" stop-color="#008BBE"/>
</linearGradient>
<linearGradient id="paint1_linear" x1="0.521566" y1="59.6738" x2="101.437" y2="47.4808" gradientUnits="userSpaceOnUse">
<stop offset="0.1477" stop-color="#F5FBFF"/>
<stop offset="0.9608" stop-color="#ABDCF0"/>
</linearGradient>
<linearGradient id="paint2_linear" x1="21.9932" y1="69.4579" x2="76.5491" y2="69.4579" gradientUnits="userSpaceOnUse">
<stop stop-color="#5DC5EA"/>
<stop offset="1" stop-color="#008BBE" stop-opacity="0"/>
</linearGradient>
<linearGradient id="paint3_linear" x1="38.0612" y1="64.9431" x2="96.2072" y2="64.9431" gradientUnits="userSpaceOnUse">
<stop stop-color="#5DC5EA"/>
<stop offset="1" stop-color="#008BBE" stop-opacity="0"/>
</linearGradient>
<linearGradient id="paint4_linear" x1="56.8457" y1="56.1551" x2="102.233" y2="56.1551" gradientUnits="userSpaceOnUse">
<stop stop-color="#5DC5EA"/>
<stop offset="1" stop-color="#008BBE" stop-opacity="0"/>
</linearGradient>
<linearGradient id="paint5_linear" x1="37.8178" y1="35.0753" x2="41.0758" y2="35.0753" gradientUnits="userSpaceOnUse">
<stop stop-color="#C0E4F2"/>
<stop offset="1" stop-color="#008BBE"/>
</linearGradient>
<linearGradient id="paint6_linear" x1="21.6543" y1="44.7172" x2="24.2797" y2="44.7172" gradientUnits="userSpaceOnUse">
<stop stop-color="#C0E4F2"/>
<stop offset="1" stop-color="#008BBE"/>
</linearGradient>
<linearGradient id="paint7_linear" x1="55.2946" y1="25.9165" x2="59.0325" y2="25.9165" gradientUnits="userSpaceOnUse">
<stop stop-color="#C0E4F2"/>
<stop offset="1" stop-color="#008BBE"/>
</linearGradient>
<linearGradient id="paint8_linear" x1="44.5" y1="63.5" x2="41.5" y2="66" gradientUnits="userSpaceOnUse">
<stop stop-color="#008FFF"/>
<stop offset="1" stop-color="#076C73" stop-opacity="0"/>
</linearGradient>
<clipPath id="clip0">
<rect width="104" height="89" fill="white"/>
</clipPath>
</defs>
</svg>
