<svg width="104" height="89" viewBox="0 0 104 89" fill="none" xmlns="http://www.w3.org/2000/svg">
<g clip-path="url(#clip0)">
<path d="M103.879 59.8766C104.482 75.6336 79.7775 88.2393 52.3013 88.9999C24.102 89.7606 1.68714 75.6336 1.68714 59.8766C1.68714 44.1196 24.584 31.2966 52.7833 31.2966C80.9826 31.2966 103.036 37.9254 103.879 59.8766Z" fill="url(#paint0_linear)"/>
<path d="M51.0962 84.2185C79.3158 84.2185 102.192 71.4228 102.192 55.6386C102.192 39.8543 79.3158 27.0586 51.0962 27.0586C22.8765 27.0586 0 39.8543 0 55.6386C0 71.4228 22.8765 84.2185 51.0962 84.2185Z" fill="url(#paint1_linear)"/>
<path opacity="0.2" d="M27.8378 60.094L24.2225 79.7631C24.2225 79.7631 37.7196 85.7399 55.7961 84.1099C73.8725 82.4798 62.6651 83.7839 62.6651 83.7839L34.1043 57.0513L27.8378 60.094Z" fill="url(#paint2_linear)"/>
<path opacity="0.2" d="M36.7555 55.8559L63.6292 83.3492C63.6292 83.3492 76.7648 82.1538 86.4055 76.177C96.0463 70.2002 103.397 64.4408 101.71 52.1612C101.71 52.1612 100.505 46.1844 97.4925 43.7936L76.4032 41.0769C76.4032 41.0769 67.365 51.0745 59.1703 51.0745C50.9757 51.0745 36.7555 55.8559 36.7555 55.8559Z" fill="url(#paint3_linear)"/>
<path d="M32.2966 59.442L30.971 61.9413C30.489 62.1587 27.8378 60.6373 27.8378 60.2026L27.7173 44.0109C27.7173 43.4676 28.0788 42.9243 28.5608 42.8156L32.1761 41.5116C32.6582 41.2942 35.5504 42.7069 35.5504 43.2503L33.2607 58.2466C33.2607 58.6813 32.7787 59.2246 32.2966 59.442Z" fill="#58C3E9"/>
<path d="M76.1622 38.9036C77.7289 38.9036 76.2827 41.403 74.9571 42.9243C73.6315 44.4457 70.2572 48.4665 68.8111 49.7705C67.365 51.1832 66.883 50.9658 66.7625 51.0745C66.6419 51.1832 54.832 57.2687 53.7474 57.3773L42.54 54.7693L38.4426 56.7253L36.7555 55.7473L36.635 42.8157C46.3963 35.9695 52.4218 37.1649 54.1089 37.5995C55.7961 38.0342 57.3627 37.7082 57.3627 37.7082C60.4959 36.2955 65.6779 36.0782 67.2445 36.2955C67.2445 36.2955 69.5342 37.0562 69.7752 38.0342L68.5701 39.3383L62.6651 42.9243C62.0626 43.033 59.1703 44.1197 57.3627 44.5544C55.555 44.989 53.7474 45.9671 53.7474 45.9671C54.2294 45.7497 56.0371 46.2931 57.6037 46.2931C59.2908 46.2931 60.737 45.4237 64.8343 43.685C68.9316 41.9463 70.1367 39.1209 72.7879 36.8389C72.7879 36.8389 76.7648 35.9695 77.9699 37.1649L76.1622 38.9036Z" fill="#58C3E9"/>
<path d="M76.0417 3.80343C75.8007 2.82541 70.8598 -1.19535 65.5574 0.434686C60.2549 2.06472 58.5678 5.86814 58.5678 5.86814C58.5678 5.86814 55.073 3.69476 51.4577 4.2381C47.8424 4.78145 38.0811 9.78023 40.8528 18.3651C40.8528 18.3651 42.9015 26.0806 54.832 30.1014L60.2549 30.7534" fill="#58C3E9"/>
<path d="M34.7068 60.6375L31.0915 61.9416C30.6095 62.1589 30.1275 61.8329 30.1275 61.3982V45.2065C30.1275 44.6632 30.489 44.1198 30.971 44.0111L34.5863 42.7071C35.0684 42.4898 35.5504 42.8158 35.5504 43.2505L35.6709 59.3335C35.6709 59.8768 35.1889 60.4202 34.7068 60.6375Z" fill="#008FFF"/>
<path d="M38.2016 43.9024L38.3221 56.834C38.3221 56.834 39.6477 56.182 40.9733 56.3993C42.2989 56.6167 54.2294 58.5727 55.314 58.3554C56.3986 58.2467 68.2086 52.1612 68.3291 52.0526C68.4496 51.9439 68.9316 52.0526 70.3777 50.7485C71.8239 49.3358 75.1981 45.3151 76.5237 43.9024C77.8494 42.381 79.175 39.8816 77.7288 39.8816C77.7288 39.8816 78.5724 38.6863 78.3314 37.9256C78.2109 37.1649 77.0058 35.6435 74.3546 37.8169C71.7034 40.099 70.2572 43.2504 66.1599 44.9891C62.0626 46.7278 60.737 47.2711 59.1703 47.2711C57.6037 47.2711 55.7961 46.8364 55.314 46.9451C55.314 46.9451 57.1217 45.9671 58.9293 45.5324C60.737 45.0977 63.6292 44.0111 64.2317 43.9024C64.8343 43.7937 67.847 43.5764 69.0521 41.5117C70.2572 39.4469 70.4983 37.5996 68.9316 37.2736C67.2445 37.0562 62.0626 37.2736 59.0498 38.6863C59.0498 38.6863 57.6037 39.1209 55.7961 38.5776C53.9884 38.2516 47.9629 37.0562 38.2016 43.9024Z" fill="#008FFF"/>
<path d="M60.3754 30.6448C60.3754 30.6448 47.6014 28.58 44.4681 19.9952C41.3349 11.519 49.8911 6.30288 53.5064 5.75954C57.1217 5.21619 60.3754 7.60691 60.3754 7.60691C60.3754 7.60691 62.5446 3.26015 67.7265 1.73878C72.9085 0.217414 75.9212 3.58616 76.1622 4.56418C76.4032 5.5422 79.898 16.0831 60.3754 30.6448Z" fill="#008FFF"/>
<path d="M47.5 10.5C45 14.3333 42.7 23 53.5 27C50 25.3333 43.9 19.7 47.5 10.5Z" fill="white"/>
<path d="M39.5 55V45L40.5 44.5L39.5 55Z" fill="white"/>
</g>
<defs>
<linearGradient id="paint0_linear" x1="2.34633" y1="65.1827" x2="103.13" y2="52.5106" gradientUnits="userSpaceOnUse">
<stop stop-color="#C0E4F2"/>
<stop offset="1" stop-color="#008BBE"/>
</linearGradient>
<linearGradient id="paint1_linear" x1="0.521567" y1="60.8086" x2="101.317" y2="48.135" gradientUnits="userSpaceOnUse">
<stop offset="0.1477" stop-color="#F5FBFF"/>
<stop offset="0.9608" stop-color="#ABDCF0"/>
</linearGradient>
<linearGradient id="paint2_linear" x1="24.2026" y1="70.7104" x2="66.0226" y2="70.7104" gradientUnits="userSpaceOnUse">
<stop stop-color="#5DC5EA"/>
<stop offset="1" stop-color="#008BBE" stop-opacity="0"/>
</linearGradient>
<linearGradient id="paint3_linear" x1="36.7425" y1="62.2384" x2="101.952" y2="62.2384" gradientUnits="userSpaceOnUse">
<stop stop-color="#5DC5EA"/>
<stop offset="1" stop-color="#008BBE" stop-opacity="0"/>
</linearGradient>
<clipPath id="clip0">
<rect width="104" height="89" fill="white"/>
</clipPath>
</defs>
</svg>
