<svg width="120" height="243" viewBox="0 0 120 243" fill="none" xmlns="http://www.w3.org/2000/svg">
<g clip-path="url(#clip0)">
<path d="M38.0288 227.092C38.0288 227.092 37.5739 234.841 37.9378 236.573C38.3017 238.305 32.2517 239.536 31.9333 230.191L31.7058 226.545L37.6194 227.001L38.0288 227.092Z" fill="#65C7EE"/>
<path d="M20.6065 216.289C20.6065 216.289 17.7862 223.217 16.6035 226.089C15.4208 228.961 14.1016 222.807 13.8741 220.254C13.6467 217.702 15.6482 212.095 15.6482 212.095L20.6065 216.289Z" fill="#65C7EE"/>
<path d="M51.9939 114.184C51.9939 114.184 52.2214 156.804 49.9469 164.325C47.6725 171.846 23.5633 219.935 23.5633 219.935L8.32447 210.819C8.32447 210.819 26.2926 176.632 27.6573 170.706C29.022 164.781 26.7475 124.668 26.0652 122.161C25.3829 119.654 43.351 118.97 51.9939 114.184Z" fill="url(#paint0_linear)"/>
<path d="M46.8537 115.688C46.8537 115.688 34.4352 122.845 24.2456 120.383C24.2456 120.383 18.6505 126.446 21.3798 139.984C24.1092 153.522 27.1569 167.333 27.4299 174.626C27.7028 181.92 23.1994 227.502 23.1994 227.502L38.9841 228.733C38.9841 228.733 48.4003 179.823 47.4905 169.111C46.5807 158.399 46.8537 115.688 46.8537 115.688Z" fill="url(#paint1_linear)"/>
<path d="M60.3184 102.333C60.3184 102.333 50.1744 98.3213 49.492 98.5036C48.8097 98.6859 46.3988 101.147 46.3988 101.147L60.3184 102.333Z" fill="#AD358B"/>
<path d="M60.3184 102.332C60.3184 102.332 45.489 100.418 45.0341 100.281C44.5792 100.145 37.7559 126.628 37.7559 126.628L54.5868 120.793L60.3184 102.332Z" fill="#0E3858"/>
<path d="M37.8923 71.6827C31.3496 70.6765 36.1637 73.9803 38.3472 74.0715C40.5307 74.1626 48.5822 72.5672 49.9469 72.9319C51.3116 73.2966 72.2365 75.3022 74.0561 74.7552C75.8756 74.2082 85.8832 55.1548 86.5655 53.3315C87.2479 51.5082 86.4746 40.2037 94.7536 40.1125C94.7536 40.1125 95.2085 42.9387 93.6163 43.9871C92.0242 45.0355 90.887 47.9983 91.7058 48.4541C92.5246 48.91 94.4351 45.9471 94.4351 46.8588C94.4351 47.7704 91.7058 52.1007 90.3411 54.0608C88.9765 56.0208 81.1524 77.8548 79.8787 79.4958C78.605 81.1367 60.091 85.3303 54.4958 84.9657C54.4958 84.9657 53.1311 87.336 53.1311 88.8402C53.1311 90.3444 38.8021 93.9454 37.8923 93.9454C36.9825 93.9454 23.1084 85.1936 23.1084 85.1936L18.5595 83.7349C18.5595 83.7349 23.9272 79.7237 25.0189 77.8092C26.1107 75.8948 26.4746 64.955 26.0197 64.0433C25.5648 63.1317 27.6573 57.8897 29.4768 57.4339C31.2964 56.9781 40.9401 56.0664 40.9401 56.0664C40.9401 56.0664 43.7594 72.5851 37.8923 71.6827Z" fill="#65C7EE"/>
<path d="M17.5587 85.1479C17.5587 85.1479 15.6027 88.202 17.2403 99.2785C17.7407 102.606 22.8355 121.614 29.6588 120.383C36.4822 119.152 49.9924 114.594 51.9484 114.138C53.9044 113.683 57.0887 114.275 58.4533 112.452C59.818 110.629 63.5936 106.526 60.7278 103.472L60.1364 102.88C60.1364 102.88 59.5906 106.207 58.4533 106.617C57.3161 107.028 58.2259 103.427 58.5443 102.834C58.8627 102.241 57.5436 101.922 56.2699 104.748C54.9962 107.575 54.1319 108.942 50.4928 109.626C46.8536 110.309 31.9787 113.5 31.9787 113.5C31.9787 113.5 29.7043 109.307 28.0212 102.697C26.3381 96.0877 24.0182 86.5154 17.5587 85.1479Z" fill="#65C7EE"/>
<path d="M11.6452 107.119C9.87115 101.466 12.1911 95.3584 10.3715 91.5295C8.55196 87.7006 9.91663 86.6066 12.2821 83.2335C14.6475 79.8604 13.1918 75.8492 12.5095 73.2054C11.8272 70.5616 17.2859 65.2285 18.1956 63.2684C19.1054 61.3084 18.1956 53.3314 24.1092 50.87C30.0228 48.4085 45.3981 47.9527 41.304 56.659C41.304 56.659 40.8492 58.1632 38.8022 58.3455C36.7551 58.5278 32.5702 58.4367 32.2062 60.7614C31.8423 63.1317 30.2502 61.3539 29.4769 60.9893C28.7036 60.6246 26.1562 62.9037 28.8855 65.9122C31.6149 68.9206 28.7036 76.4873 27.4299 77.8548C27.4299 77.8548 24.0182 82.1395 20.6066 82.0028C17.1949 81.866 16.649 84.3731 16.4216 85.9685C16.1941 87.5639 15.6028 94.4012 16.2851 96.0878C16.9674 97.6831 13.5558 113.272 11.6452 107.119Z" fill="url(#paint2_linear)"/>
<path d="M32.1152 113.272C32.1152 113.272 29.9773 110.537 27.1115 99.4608C24.2456 88.3843 19.0599 85.0112 17.5588 85.1935C16.0576 85.3302 15.1478 107.21 26.975 120.292C26.975 120.292 22.4261 120.292 21.0614 117.876C19.6967 115.46 10.2805 84.1451 19.2419 82.0027C19.2419 82.0027 41.8499 85.9684 44.2608 73.6611L47.9909 72.8862C47.9909 72.8862 48.3093 86.6066 53.1312 88.7945C53.1312 88.7945 50.9477 98.1389 50.9477 98.7315C50.9477 99.3241 50.9477 98.9594 50.9477 98.9594L49.6285 98.5947C49.6285 98.5947 49.4466 98.458 48.7187 99.0961C47.9909 99.7343 46.9447 100.646 46.9447 100.646L44.9886 100.372L41.8499 111.449C41.8499 111.403 31.7968 113.91 32.1152 113.272Z" fill="#DDE2E8"/>
<path d="M43.9424 76.3506C43.9424 76.3506 39.9394 82.1851 37.21 84.0084C34.4807 85.8317 45.0341 89.2504 41.304 110.218C41.304 110.218 45.9439 94.2645 38.5747 86.1508L37.8469 85.3303C37.8469 85.3303 42.9416 78.6297 43.9424 76.3506Z" fill="#EDEEEF"/>
<path d="M39.8938 86.1508C39.6677 86.1508 39.4844 85.9671 39.4844 85.7406C39.4844 85.514 39.6677 85.3303 39.8938 85.3303C40.1199 85.3303 40.3032 85.514 40.3032 85.7406C40.3032 85.9671 40.1199 86.1508 39.8938 86.1508Z" fill="#EDEEEF"/>
<path d="M41.7134 89.0226C41.4873 89.0226 41.304 88.8389 41.304 88.6124C41.304 88.3858 41.4873 88.2021 41.7134 88.2021C41.9395 88.2021 42.1228 88.3858 42.1228 88.6124C42.1228 88.8389 41.9395 89.0226 41.7134 89.0226Z" fill="#EDEEEF"/>
<path d="M42.7142 91.6664C42.4881 91.6664 42.3048 91.4828 42.3048 91.2562C42.3048 91.0296 42.4881 90.8459 42.7142 90.8459C42.9403 90.8459 43.1236 91.0296 43.1236 91.2562C43.1236 91.4828 42.9403 91.6664 42.7142 91.6664Z" fill="#EDEEEF"/>
<path d="M43.351 94.6291C43.1249 94.6291 42.9416 94.4454 42.9416 94.2188C42.9416 93.9923 43.1249 93.8086 43.351 93.8086C43.5771 93.8086 43.7604 93.9923 43.7604 94.2188C43.7604 94.4454 43.5771 94.6291 43.351 94.6291Z" fill="#EDEEEF"/>
<path d="M43.6695 98.1388C43.4433 98.1388 43.2601 97.9552 43.2601 97.7286C43.2601 97.502 43.4433 97.3184 43.6695 97.3184C43.8956 97.3184 44.0789 97.502 44.0789 97.7286C44.0789 97.9552 43.8956 98.1388 43.6695 98.1388Z" fill="#EDEEEF"/>
<path d="M32.0242 233.519C32.0242 233.519 30.5686 233.063 29.9772 235.114C29.3859 237.166 29.2039 238.715 29.2039 238.715L49.674 243C49.674 243 51.0386 240.356 49.4465 239.901C47.8544 239.445 42.3957 237.439 38.7111 233.473L37.9833 232.744C38.0288 232.744 36.0728 236.755 32.0242 233.519Z" fill="#6BA0D6"/>
<path d="M13.6467 219.206C13.6467 219.206 12.6914 218.021 11.0538 219.343C9.41622 220.665 8.36998 221.895 8.36998 221.895L22.881 237.029C22.881 237.029 25.5193 235.616 24.4731 234.339C23.4268 233.109 20.0607 228.322 19.2419 222.944L19.0599 221.941C19.0599 221.986 15.1933 224.174 13.6467 219.206Z" fill="#6BA0D6"/>
</g>
<defs>
<linearGradient id="paint0_linear" x1="27.4468" y1="152.195" x2="81.731" y2="174.506" gradientUnits="userSpaceOnUse">
<stop stop-color="#1D4B98"/>
<stop offset="1" stop-color="#AD358B"/>
</linearGradient>
<linearGradient id="paint1_linear" x1="-5.74468" y1="146.439" x2="58.0917" y2="157.272" gradientUnits="userSpaceOnUse">
<stop stop-color="#0A4E99"/>
<stop offset="1" stop-color="#913A8E"/>
</linearGradient>
<linearGradient id="paint2_linear" x1="22.3404" y1="47.3209" x2="54.9213" y2="65.1756" gradientUnits="userSpaceOnUse">
<stop stop-color="#3A4796"/>
<stop offset="1" stop-color="#AD358B"/>
</linearGradient>
<clipPath id="clip0">
<rect width="120" height="243" fill="white" transform="matrix(-1 0 0 1 120 0)"/>
</clipPath>
</defs>
</svg>
