<svg width="110" height="62" viewBox="0 0 110 62" fill="none" xmlns="http://www.w3.org/2000/svg">
<path d="M8.99208 55.149C8.99208 55.149 -1.70178 48.6261 1.01094 30.8201C3.72366 13.0142 26.3246 12.9328 28.6728 13.6709C28.6728 13.6709 31.7959 5.93937 40.281 2.53475C48.7661 -0.869866 68.2366 0.307269 74.8744 16.0384C74.8744 16.0384 92.3618 11.4747 95.4291 29.8004C95.4291 29.8004 109.545 33.1236 109.256 45.1145C108.968 57.1054 97.5517 63.6542 85.974 56.5669C85.974 56.5669 76.0869 67.3813 63.7559 57.6934C63.7559 57.6934 52.0277 67.0339 38.6499 56.7717C38.5684 56.7668 22.8075 67.5668 8.99208 55.149Z" fill="white"/>
</svg>
