<svg width="104" height="89" viewBox="0 0 104 89" fill="none" xmlns="http://www.w3.org/2000/svg">
<g clip-path="url(#clip0)">
<path d="M103.879 58.9598C104.482 75.213 79.7775 88.2155 52.3013 89.0001C24.102 89.7848 1.68713 75.213 1.68713 58.9598C1.68713 42.7067 24.584 29.48 52.7833 29.48C80.9826 29.48 103.036 36.2054 103.879 58.9598Z" fill="url(#paint0_linear)"/>
<path d="M51.0962 84.0681C79.3158 84.0681 102.192 70.8695 102.192 54.5882C102.192 38.307 79.3158 25.1084 51.0962 25.1084C22.8765 25.1084 0 38.307 0 54.5882C0 70.8695 22.8765 84.0681 51.0962 84.0681Z" fill="url(#paint1_linear)"/>
<path opacity="0.2" d="M50.3731 53.9155L40.1298 83.5074C40.1298 83.5074 67.7265 87.879 89.5388 73.9797C89.5388 73.9797 102.795 66.3576 102.192 54.588L54.5909 53.1309L50.3731 53.9155Z" fill="url(#paint2_linear)"/>
<path d="M16.3893 38.6713L14.9432 37.8866L11.5689 22.7544L14.4612 21.8577L16.1483 22.6423L16.5098 24.4358L18.5585 36.9899L16.3893 38.6713Z" fill="url(#paint3_linear)"/>
<path d="M60.3754 14.7961C60.3754 14.7961 61.0985 7.17389 60.1344 3.13863C59.1703 -0.896635 53.5064 0.224272 53.5064 0.224272L16.1483 15.1323L25.9096 30.4888C25.9096 30.4888 27.1147 30.825 28.6813 31.2734L60.3754 14.7961Z" fill="url(#paint4_linear)"/>
<path d="M58.3268 21.0732L60.1344 21.6337L47.8424 29.7042L49.7706 37.9989L53.9884 39.9045C53.9884 39.9045 55.1935 34.6362 55.6756 32.5065C56.1576 30.3768 58.3268 30.601 58.3268 30.601L61.0985 31.8339L58.8088 57.9511C58.8088 57.9511 55.1935 57.0544 53.7474 56.3818C52.3013 55.7093 52.1808 51.2256 52.1808 51.2256L52.5423 46.1816L45.0707 43.2672L42.781 33.6274L26.8737 40.4649L25.0661 39.4561L21.9328 27.9108L22.8969 28.0229L25.9096 33.179L58.3268 21.0732Z" fill="url(#paint5_linear)"/>
<path d="M13.2561 23.5391L16.3893 38.6713L20.1251 37.2141L16.1483 22.6423L13.2561 23.5391Z" fill="#008FFF"/>
<path d="M28.6813 31.2733L18.7995 16.3652L56.1576 1.45716C56.1576 1.45716 59.6524 0.112069 60.737 4.14733C61.8215 8.1826 63.1472 16.141 63.1472 16.141C63.1472 16.141 63.9907 17.5982 62.1831 18.607C60.2549 19.3917 28.6813 31.2733 28.6813 31.2733Z" fill="#008FFF"/>
<path d="M22.8969 28.0227L26.7532 40.3527L44.7091 33.0668L46.9988 43.9396L54.9525 47.3023L53.8679 52.6827C53.8679 52.6827 53.7474 56.1575 55.1935 56.9421C56.6396 57.6147 58.8088 58.1751 58.8088 58.1751L63.5087 33.0668L60.0139 31.3854C60.0139 31.3854 57.7242 31.3854 57.2422 33.5152C56.7601 35.6449 55.9166 40.8011 55.9166 40.8011L52.3013 39.2318L50.3731 30.9371L61.219 27.0139L60.1344 21.6335L27.7172 33.9635L22.8969 28.0227Z" fill="#008FFF"/>
<path d="M56.1576 1.34507C58.2063 0.448343 59.7729 2.1297 59.7729 2.1297C58.0857 -0.784655 53.5064 0.112071 53.5064 0.112071L16.1483 15.0201L18.7995 16.2531L56.1576 1.34507Z" fill="#65C7EE"/>
<path d="M26.8737 32.7304L58.3268 21.073L60.0139 21.6335L27.7173 33.9634L26.8737 32.7304Z" fill="#65C7EE"/>
<path d="M53.8679 39.9043L55.7961 31.7217C55.7961 31.7217 57.4832 29.2557 60.0139 31.3854C60.0139 31.3854 58.3268 31.2733 57.7242 32.3942C57.1217 33.5151 55.7961 40.801 55.7961 40.801L53.8679 39.9043Z" fill="#65C7EE"/>
<path d="M52.3013 45.9573C52.3013 45.9573 51.9397 50.1046 52.0602 51.786C52.0602 53.3553 52.3013 56.2696 55.1935 56.8301C55.1935 56.8301 53.9884 55.8212 53.9884 53.9157C53.8679 52.0102 55.073 47.3024 55.073 47.3024L52.3013 45.9573Z" fill="#65C7EE"/>
<path d="M20.4867 16.5895L56.0371 2.354C56.0371 2.354 33.9838 12.218 20.4867 16.5895Z" fill="white"/>
<path d="M13.2561 23.539L11.5689 22.7544L14.4612 21.8577L16.1483 22.6423L13.2561 23.539Z" fill="#65C7EE"/>
<path d="M13.7381 24.4358L16.3893 37.4383C16.3893 37.4383 15.0637 26.6776 13.7381 24.4358Z" fill="white"/>
<path d="M27.1147 39.6801L44.2271 32.7305C44.2271 32.7305 31.3326 37.2141 27.1147 39.6801Z" fill="white"/>
</g>
<defs>
<linearGradient id="paint0_linear" x1="2.34632" y1="64.407" x2="103.225" y2="52.11" gradientUnits="userSpaceOnUse">
<stop stop-color="#C0E4F2"/>
<stop offset="1" stop-color="#008BBE"/>
</linearGradient>
<linearGradient id="paint1_linear" x1="0.521567" y1="59.8951" x2="101.411" y2="47.5968" gradientUnits="userSpaceOnUse">
<stop offset="0.1477" stop-color="#F5FBFF"/>
<stop offset="0.9608" stop-color="#ABDCF0"/>
</linearGradient>
<linearGradient id="paint2_linear" x1="40.0696" y1="68.6272" x2="102.152" y2="68.6272" gradientUnits="userSpaceOnUse">
<stop stop-color="#5DC5EA"/>
<stop offset="1" stop-color="#008BBE" stop-opacity="0"/>
</linearGradient>
<linearGradient id="paint3_linear" x1="11.5" y1="31.5" x2="19.5" y2="29.5" gradientUnits="userSpaceOnUse">
<stop stop-color="#0767B2"/>
<stop offset="1" stop-color="#008FFF"/>
</linearGradient>
<linearGradient id="paint4_linear" x1="27" y1="21.5" x2="17.5" y2="26" gradientUnits="userSpaceOnUse">
<stop stop-color="#008FFF"/>
<stop offset="1" stop-color="#0E3858"/>
</linearGradient>
<linearGradient id="paint5_linear" x1="42" y1="27.5" x2="31" y2="59" gradientUnits="userSpaceOnUse">
<stop stop-color="#008FFF"/>
<stop offset="1" stop-color="#0E3858"/>
</linearGradient>
<clipPath id="clip0">
<rect width="104" height="89" fill="white"/>
</clipPath>
</defs>
</svg>
